<mxfile host="65bd71144e">
    <diagram id="Gx-F-6CYKtvMFr3PCWgY" name="Page-1">
        <mxGraphModel dx="1095" dy="521" grid="1" gridSize="10" guides="1" tooltips="1" connect="1" arrows="1" fold="1" page="1" pageScale="1" pageWidth="850" pageHeight="1100" math="0" shadow="0">
            <root>
                <mxCell id="0"/>
                <mxCell id="1" parent="0"/>
                <mxCell id="2" value="Employee" style="swimlane;startSize=20;horizontal=1;containerType=tree;" parent="1" vertex="1">
                    <mxGeometry x="-520" y="230" width="1500" height="640" as="geometry">
                        <mxRectangle x="40" y="30" width="100" height="30" as="alternateBounds"/>
                    </mxGeometry>
                </mxCell>
                <mxCell id="3" value="" style="edgeStyle=entityRelationEdgeStyle;startArrow=none;endArrow=none;segment=10;curved=1;sourcePerimeterSpacing=0;targetPerimeterSpacing=0;" parent="2" source="7" target="8" edge="1">
                    <mxGeometry relative="1" as="geometry"/>
                </mxCell>
                <mxCell id="7" value="Employee" style="ellipse;whiteSpace=wrap;html=1;align=center;treeFolding=1;treeMoving=1;newEdgeStyle={&quot;edgeStyle&quot;:&quot;entityRelationEdgeStyle&quot;,&quot;startArrow&quot;:&quot;none&quot;,&quot;endArrow&quot;:&quot;none&quot;,&quot;segment&quot;:10,&quot;curved&quot;:1,&quot;sourcePerimeterSpacing&quot;:0,&quot;targetPerimeterSpacing&quot;:0};fillColor=#d80073;fontColor=#ffffff;strokeColor=#A50040;" parent="2" vertex="1">
                    <mxGeometry x="530" y="320" width="100" height="40" as="geometry"/>
                </mxCell>
                <mxCell id="8" value="creates the Eatery" style="whiteSpace=wrap;html=1;arcSize=50;align=center;verticalAlign=middle;strokeWidth=1;autosize=1;spacing=4;treeFolding=1;treeMoving=1;newEdgeStyle={&quot;edgeStyle&quot;:&quot;entityRelationEdgeStyle&quot;,&quot;startArrow&quot;:&quot;none&quot;,&quot;endArrow&quot;:&quot;none&quot;,&quot;segment&quot;:10,&quot;curved&quot;:1,&quot;sourcePerimeterSpacing&quot;:0,&quot;targetPerimeterSpacing&quot;:0};fillColor=#d80073;fontColor=#ffffff;strokeColor=#A50040;" parent="2" vertex="1">
                    <mxGeometry x="670" y="210" width="140" height="30" as="geometry"/>
                </mxCell>
                <mxCell id="12" value="" style="edgeStyle=entityRelationEdgeStyle;startArrow=none;endArrow=none;segment=10;curved=1;sourcePerimeterSpacing=0;targetPerimeterSpacing=0;" parent="2" source="8" target="13" edge="1">
                    <mxGeometry relative="1" as="geometry">
                        <mxPoint x="360" y="140" as="sourcePoint"/>
                    </mxGeometry>
                </mxCell>
                <mxCell id="13" value="Choose managers and staff" style="whiteSpace=wrap;html=1;rounded=1;arcSize=50;align=center;verticalAlign=middle;strokeWidth=1;autosize=1;spacing=4;treeFolding=1;treeMoving=1;newEdgeStyle={&quot;edgeStyle&quot;:&quot;entityRelationEdgeStyle&quot;,&quot;startArrow&quot;:&quot;none&quot;,&quot;endArrow&quot;:&quot;none&quot;,&quot;segment&quot;:10,&quot;curved&quot;:1,&quot;sourcePerimeterSpacing&quot;:0,&quot;targetPerimeterSpacing&quot;:0};fillColor=#d80073;fontColor=#ffffff;strokeColor=#A50040;" parent="2" vertex="1">
                    <mxGeometry x="890" y="130" width="190" height="30" as="geometry"/>
                </mxCell>
                <mxCell id="14" value="" style="edgeStyle=entityRelationEdgeStyle;html=1;startArrow=none;endArrow=none;segment=10;curved=1;sourcePerimeterSpacing=0;targetPerimeterSpacing=0;" parent="2" source="7" target="15" edge="1">
                    <mxGeometry relative="1" as="geometry"/>
                </mxCell>
                <mxCell id="15" value="Auth by Telegram and Login + password" style="whiteSpace=wrap;html=1;align=center;treeFolding=1;treeMoving=1;newEdgeStyle={&quot;edgeStyle&quot;:&quot;entityRelationEdgeStyle&quot;,&quot;startArrow&quot;:&quot;none&quot;,&quot;endArrow&quot;:&quot;none&quot;,&quot;segment&quot;:10,&quot;curved&quot;:1,&quot;sourcePerimeterSpacing&quot;:0,&quot;targetPerimeterSpacing&quot;:0};fillColor=#d80073;fontColor=#ffffff;strokeColor=#A50040;" parent="2" vertex="1">
                    <mxGeometry x="350" y="300" width="140" height="60" as="geometry"/>
                </mxCell>
                <mxCell id="16" value="" style="edgeStyle=entityRelationEdgeStyle;startArrow=none;endArrow=none;segment=10;curved=1;sourcePerimeterSpacing=0;targetPerimeterSpacing=0;" parent="2" source="8" target="17" edge="1">
                    <mxGeometry relative="1" as="geometry">
                        <mxPoint x="530" y="110" as="sourcePoint"/>
                    </mxGeometry>
                </mxCell>
                <mxCell id="17" value="Assigns roles" style="whiteSpace=wrap;html=1;rounded=1;arcSize=50;align=center;verticalAlign=middle;strokeWidth=1;autosize=1;spacing=4;treeFolding=1;treeMoving=1;newEdgeStyle={&quot;edgeStyle&quot;:&quot;entityRelationEdgeStyle&quot;,&quot;startArrow&quot;:&quot;none&quot;,&quot;endArrow&quot;:&quot;none&quot;,&quot;segment&quot;:10,&quot;curved&quot;:1,&quot;sourcePerimeterSpacing&quot;:0,&quot;targetPerimeterSpacing&quot;:0};fillColor=#d80073;fontColor=#ffffff;strokeColor=#A50040;" parent="2" vertex="1">
                    <mxGeometry x="880" y="260" width="120" height="30" as="geometry"/>
                </mxCell>
                <mxCell id="22" value="Block the Eatery" style="ellipse;whiteSpace=wrap;html=1;align=center;treeFolding=1;treeMoving=1;newEdgeStyle={&quot;edgeStyle&quot;:&quot;entityRelationEdgeStyle&quot;,&quot;startArrow&quot;:&quot;none&quot;,&quot;endArrow&quot;:&quot;none&quot;,&quot;segment&quot;:10,&quot;curved&quot;:1,&quot;sourcePerimeterSpacing&quot;:0,&quot;targetPerimeterSpacing&quot;:0};fillColor=#d80073;fontColor=#ffffff;strokeColor=#A50040;" parent="2" vertex="1">
                    <mxGeometry x="690" y="310" width="100" height="40" as="geometry"/>
                </mxCell>
                <mxCell id="21" value="" style="edgeStyle=entityRelationEdgeStyle;html=1;startArrow=none;endArrow=none;segment=10;curved=1;sourcePerimeterSpacing=0;targetPerimeterSpacing=0;" parent="2" source="7" target="22" edge="1">
                    <mxGeometry relative="1" as="geometry"/>
                </mxCell>
                <mxCell id="23" value="" style="edgeStyle=entityRelationEdgeStyle;html=1;startArrow=none;endArrow=none;segment=10;curved=1;sourcePerimeterSpacing=0;targetPerimeterSpacing=0;" parent="2" source="7" target="24" edge="1">
                    <mxGeometry relative="1" as="geometry"/>
                </mxCell>
                <mxCell id="24" value="Register" style="ellipse;whiteSpace=wrap;html=1;align=center;treeFolding=1;treeMoving=1;newEdgeStyle={&quot;edgeStyle&quot;:&quot;entityRelationEdgeStyle&quot;,&quot;startArrow&quot;:&quot;none&quot;,&quot;endArrow&quot;:&quot;none&quot;,&quot;segment&quot;:10,&quot;curved&quot;:1,&quot;sourcePerimeterSpacing&quot;:0,&quot;targetPerimeterSpacing&quot;:0};fillColor=#d80073;fontColor=#ffffff;strokeColor=#A50040;" parent="2" vertex="1">
                    <mxGeometry x="370" y="180" width="100" height="40" as="geometry"/>
                </mxCell>
                <mxCell id="25" value="" style="edgeStyle=entityRelationEdgeStyle;html=1;startArrow=none;endArrow=none;segment=10;curved=1;sourcePerimeterSpacing=0;targetPerimeterSpacing=0;" parent="2" source="7" target="26" edge="1">
                    <mxGeometry relative="1" as="geometry"/>
                </mxCell>
                <mxCell id="26" value="Request to assign" style="ellipse;whiteSpace=wrap;html=1;align=center;treeFolding=1;treeMoving=1;newEdgeStyle={&quot;edgeStyle&quot;:&quot;entityRelationEdgeStyle&quot;,&quot;startArrow&quot;:&quot;none&quot;,&quot;endArrow&quot;:&quot;none&quot;,&quot;segment&quot;:10,&quot;curved&quot;:1,&quot;sourcePerimeterSpacing&quot;:0,&quot;targetPerimeterSpacing&quot;:0};fillColor=#d80073;fontColor=#ffffff;strokeColor=#A50040;" parent="2" vertex="1">
                    <mxGeometry x="380" y="430" width="100" height="40" as="geometry"/>
                </mxCell>
                <mxCell id="20" value="restore password" style="whiteSpace=wrap;html=1;align=center;treeFolding=1;treeMoving=1;newEdgeStyle={&quot;edgeStyle&quot;:&quot;entityRelationEdgeStyle&quot;,&quot;startArrow&quot;:&quot;none&quot;,&quot;endArrow&quot;:&quot;none&quot;,&quot;segment&quot;:10,&quot;curved&quot;:1,&quot;sourcePerimeterSpacing&quot;:0,&quot;targetPerimeterSpacing&quot;:0};fillColor=#d80073;fontColor=#ffffff;strokeColor=#A50040;" parent="2" vertex="1">
                    <mxGeometry x="165" y="345" width="140" height="60" as="geometry"/>
                </mxCell>
                <mxCell id="19" value="" style="edgeStyle=entityRelationEdgeStyle;html=1;startArrow=none;endArrow=none;segment=10;curved=1;sourcePerimeterSpacing=0;targetPerimeterSpacing=0;" parent="2" source="15" target="20" edge="1">
                    <mxGeometry relative="1" as="geometry">
                        <mxPoint x="670" y="120" as="sourcePoint"/>
                    </mxGeometry>
                </mxCell>
                <mxCell id="35" value="" style="edgeStyle=entityRelationEdgeStyle;startArrow=none;endArrow=none;segment=10;curved=1;sourcePerimeterSpacing=0;targetPerimeterSpacing=0;" parent="2" source="17" target="36" edge="1">
                    <mxGeometry relative="1" as="geometry">
                        <mxPoint x="280" y="425" as="sourcePoint"/>
                    </mxGeometry>
                </mxCell>
                <mxCell id="36" value="Owner" style="whiteSpace=wrap;html=1;rounded=1;arcSize=50;align=center;verticalAlign=middle;strokeWidth=1;autosize=1;spacing=4;treeFolding=1;treeMoving=1;newEdgeStyle={&quot;edgeStyle&quot;:&quot;entityRelationEdgeStyle&quot;,&quot;startArrow&quot;:&quot;none&quot;,&quot;endArrow&quot;:&quot;none&quot;,&quot;segment&quot;:10,&quot;curved&quot;:1,&quot;sourcePerimeterSpacing&quot;:0,&quot;targetPerimeterSpacing&quot;:0};" parent="2" vertex="1">
                    <mxGeometry x="1135" y="160" width="80" height="30" as="geometry"/>
                </mxCell>
                <mxCell id="37" value="" style="edgeStyle=entityRelationEdgeStyle;startArrow=none;endArrow=none;segment=10;curved=1;sourcePerimeterSpacing=0;targetPerimeterSpacing=0;" parent="2" source="17" target="38" edge="1">
                    <mxGeometry relative="1" as="geometry">
                        <mxPoint x="250" y="445" as="sourcePoint"/>
                    </mxGeometry>
                </mxCell>
                <mxCell id="38" value="Manager" style="whiteSpace=wrap;html=1;rounded=1;arcSize=50;align=center;verticalAlign=middle;strokeWidth=1;autosize=1;spacing=4;treeFolding=1;treeMoving=1;newEdgeStyle={&quot;edgeStyle&quot;:&quot;entityRelationEdgeStyle&quot;,&quot;startArrow&quot;:&quot;none&quot;,&quot;endArrow&quot;:&quot;none&quot;,&quot;segment&quot;:10,&quot;curved&quot;:1,&quot;sourcePerimeterSpacing&quot;:0,&quot;targetPerimeterSpacing&quot;:0};" parent="2" vertex="1">
                    <mxGeometry x="1135" y="220" width="90" height="30" as="geometry"/>
                </mxCell>
                <mxCell id="39" value="" style="edgeStyle=entityRelationEdgeStyle;startArrow=none;endArrow=none;segment=10;curved=1;sourcePerimeterSpacing=0;targetPerimeterSpacing=0;" parent="2" source="17" target="40" edge="1">
                    <mxGeometry relative="1" as="geometry">
                        <mxPoint x="250" y="445" as="sourcePoint"/>
                    </mxGeometry>
                </mxCell>
                <mxCell id="40" value="Waiter" style="whiteSpace=wrap;html=1;rounded=1;arcSize=50;align=center;verticalAlign=middle;strokeWidth=1;autosize=1;spacing=4;treeFolding=1;treeMoving=1;newEdgeStyle={&quot;edgeStyle&quot;:&quot;entityRelationEdgeStyle&quot;,&quot;startArrow&quot;:&quot;none&quot;,&quot;endArrow&quot;:&quot;none&quot;,&quot;segment&quot;:10,&quot;curved&quot;:1,&quot;sourcePerimeterSpacing&quot;:0,&quot;targetPerimeterSpacing&quot;:0};" parent="2" vertex="1">
                    <mxGeometry x="1130" y="530" width="80" height="30" as="geometry"/>
                </mxCell>
                <mxCell id="41" value="" style="edgeStyle=entityRelationEdgeStyle;startArrow=none;endArrow=none;segment=10;curved=1;sourcePerimeterSpacing=0;targetPerimeterSpacing=0;" parent="2" source="17" target="42" edge="1">
                    <mxGeometry relative="1" as="geometry">
                        <mxPoint x="240" y="485" as="sourcePoint"/>
                    </mxGeometry>
                </mxCell>
                <mxCell id="42" value="Master data operator" style="whiteSpace=wrap;html=1;rounded=1;arcSize=50;align=center;verticalAlign=middle;strokeWidth=1;autosize=1;spacing=4;treeFolding=1;treeMoving=1;newEdgeStyle={&quot;edgeStyle&quot;:&quot;entityRelationEdgeStyle&quot;,&quot;startArrow&quot;:&quot;none&quot;,&quot;endArrow&quot;:&quot;none&quot;,&quot;segment&quot;:10,&quot;curved&quot;:1,&quot;sourcePerimeterSpacing&quot;:0,&quot;targetPerimeterSpacing&quot;:0};" parent="2" vertex="1">
                    <mxGeometry x="1135" y="290" width="160" height="30" as="geometry"/>
                </mxCell>
                <mxCell id="43" value="" style="edgeStyle=entityRelationEdgeStyle;startArrow=none;endArrow=none;segment=10;curved=1;sourcePerimeterSpacing=0;targetPerimeterSpacing=0;" parent="2" source="17" target="44" edge="1">
                    <mxGeometry relative="1" as="geometry">
                        <mxPoint x="170" y="475" as="sourcePoint"/>
                    </mxGeometry>
                </mxCell>
                <mxCell id="44" value="Chef" style="whiteSpace=wrap;html=1;rounded=1;arcSize=50;align=center;verticalAlign=middle;strokeWidth=1;autosize=1;spacing=4;treeFolding=1;treeMoving=1;newEdgeStyle={&quot;edgeStyle&quot;:&quot;entityRelationEdgeStyle&quot;,&quot;startArrow&quot;:&quot;none&quot;,&quot;endArrow&quot;:&quot;none&quot;,&quot;segment&quot;:10,&quot;curved&quot;:1,&quot;sourcePerimeterSpacing&quot;:0,&quot;targetPerimeterSpacing&quot;:0};" parent="2" vertex="1">
                    <mxGeometry x="1140" y="360" width="70" height="30" as="geometry"/>
                </mxCell>
                <mxCell id="45" value="" style="edgeStyle=entityRelationEdgeStyle;startArrow=none;endArrow=none;segment=10;curved=1;sourcePerimeterSpacing=0;targetPerimeterSpacing=0;" parent="2" source="17" target="46" edge="1">
                    <mxGeometry relative="1" as="geometry">
                        <mxPoint x="170" y="475" as="sourcePoint"/>
                    </mxGeometry>
                </mxCell>
                <mxCell id="46" value="sous-chef" style="whiteSpace=wrap;html=1;rounded=1;arcSize=50;align=center;verticalAlign=middle;strokeWidth=1;autosize=1;spacing=4;treeFolding=1;treeMoving=1;newEdgeStyle={&quot;edgeStyle&quot;:&quot;entityRelationEdgeStyle&quot;,&quot;startArrow&quot;:&quot;none&quot;,&quot;endArrow&quot;:&quot;none&quot;,&quot;segment&quot;:10,&quot;curved&quot;:1,&quot;sourcePerimeterSpacing&quot;:0,&quot;targetPerimeterSpacing&quot;:0};" parent="2" vertex="1">
                    <mxGeometry x="1140" y="420" width="100" height="30" as="geometry"/>
                </mxCell>
                <mxCell id="47" value="" style="edgeStyle=entityRelationEdgeStyle;startArrow=none;endArrow=none;segment=10;curved=1;sourcePerimeterSpacing=0;targetPerimeterSpacing=0;" parent="2" source="17" target="48" edge="1">
                    <mxGeometry relative="1" as="geometry">
                        <mxPoint x="170" y="475" as="sourcePoint"/>
                    </mxGeometry>
                </mxCell>
                <mxCell id="48" value="Cook" style="whiteSpace=wrap;html=1;rounded=1;arcSize=50;align=center;verticalAlign=middle;strokeWidth=1;autosize=1;spacing=4;treeFolding=1;treeMoving=1;newEdgeStyle={&quot;edgeStyle&quot;:&quot;entityRelationEdgeStyle&quot;,&quot;startArrow&quot;:&quot;none&quot;,&quot;endArrow&quot;:&quot;none&quot;,&quot;segment&quot;:10,&quot;curved&quot;:1,&quot;sourcePerimeterSpacing&quot;:0,&quot;targetPerimeterSpacing&quot;:0};" parent="2" vertex="1">
                    <mxGeometry x="1140" y="470" width="70" height="30" as="geometry"/>
                </mxCell>
                <mxCell id="49" value="" style="edgeStyle=entityRelationEdgeStyle;html=1;startArrow=none;endArrow=none;segment=10;curved=1;sourcePerimeterSpacing=0;targetPerimeterSpacing=0;" parent="2" source="7" target="50" edge="1">
                    <mxGeometry relative="1" as="geometry"/>
                </mxCell>
                <mxCell id="50" value="Start work / &lt;br&gt;stop work" style="ellipse;whiteSpace=wrap;html=1;align=center;treeFolding=1;treeMoving=1;newEdgeStyle={&quot;edgeStyle&quot;:&quot;entityRelationEdgeStyle&quot;,&quot;startArrow&quot;:&quot;none&quot;,&quot;endArrow&quot;:&quot;none&quot;,&quot;segment&quot;:10,&quot;curved&quot;:1,&quot;sourcePerimeterSpacing&quot;:0,&quot;targetPerimeterSpacing&quot;:0};" parent="2" vertex="1">
                    <mxGeometry x="690" y="410" width="100" height="40" as="geometry"/>
                </mxCell>
                <mxCell id="51" value="" style="edgeStyle=entityRelationEdgeStyle;startArrow=none;endArrow=none;segment=10;curved=1;sourcePerimeterSpacing=0;targetPerimeterSpacing=0;" parent="2" source="40" target="52" edge="1">
                    <mxGeometry relative="1" as="geometry">
                        <mxPoint x="340" y="505" as="sourcePoint"/>
                    </mxGeometry>
                </mxCell>
                <mxCell id="52" value="Capture table /release table" style="whiteSpace=wrap;html=1;rounded=1;arcSize=50;align=center;verticalAlign=middle;strokeWidth=1;autosize=1;spacing=4;treeFolding=1;treeMoving=1;newEdgeStyle={&quot;edgeStyle&quot;:&quot;entityRelationEdgeStyle&quot;,&quot;startArrow&quot;:&quot;none&quot;,&quot;endArrow&quot;:&quot;none&quot;,&quot;segment&quot;:10,&quot;curved&quot;:1,&quot;sourcePerimeterSpacing&quot;:0,&quot;targetPerimeterSpacing&quot;:0};" parent="2" vertex="1">
                    <mxGeometry x="1240" y="580" width="190" height="30" as="geometry"/>
                </mxCell>
                <mxCell id="53" value="" style="edgeStyle=entityRelationEdgeStyle;startArrow=none;endArrow=none;segment=10;curved=1;sourcePerimeterSpacing=0;targetPerimeterSpacing=0;" parent="2" source="48" target="54" edge="1">
                    <mxGeometry relative="1" as="geometry">
                        <mxPoint x="340" y="505" as="sourcePoint"/>
                    </mxGeometry>
                </mxCell>
                <mxCell id="54" value="Capture order/ release order" style="whiteSpace=wrap;html=1;rounded=1;arcSize=50;align=center;verticalAlign=middle;strokeWidth=1;autosize=1;spacing=4;treeFolding=1;treeMoving=1;newEdgeStyle={&quot;edgeStyle&quot;:&quot;entityRelationEdgeStyle&quot;,&quot;startArrow&quot;:&quot;none&quot;,&quot;endArrow&quot;:&quot;none&quot;,&quot;segment&quot;:10,&quot;curved&quot;:1,&quot;sourcePerimeterSpacing&quot;:0,&quot;targetPerimeterSpacing&quot;:0};" parent="2" vertex="1">
                    <mxGeometry x="1240" y="510" width="200" height="30" as="geometry"/>
                </mxCell>
                <mxCell id="55" value="" style="edgeStyle=entityRelationEdgeStyle;startArrow=none;endArrow=none;segment=10;curved=1;sourcePerimeterSpacing=0;targetPerimeterSpacing=0;" parent="2" source="46" target="56" edge="1">
                    <mxGeometry relative="1" as="geometry">
                        <mxPoint x="340" y="505" as="sourcePoint"/>
                    </mxGeometry>
                </mxCell>
                <mxCell id="56" value="Assign table" style="whiteSpace=wrap;html=1;rounded=1;arcSize=50;align=center;verticalAlign=middle;strokeWidth=1;autosize=1;spacing=4;treeFolding=1;treeMoving=1;newEdgeStyle={&quot;edgeStyle&quot;:&quot;entityRelationEdgeStyle&quot;,&quot;startArrow&quot;:&quot;none&quot;,&quot;endArrow&quot;:&quot;none&quot;,&quot;segment&quot;:10,&quot;curved&quot;:1,&quot;sourcePerimeterSpacing&quot;:0,&quot;targetPerimeterSpacing&quot;:0};fillColor=#d80073;fontColor=#ffffff;strokeColor=#A50040;" parent="2" vertex="1">
                    <mxGeometry x="1280" y="360" width="110" height="30" as="geometry"/>
                </mxCell>
                <mxCell id="57" value="" style="edgeStyle=entityRelationEdgeStyle;startArrow=none;endArrow=none;segment=10;curved=1;sourcePerimeterSpacing=0;targetPerimeterSpacing=0;" parent="2" source="46" target="58" edge="1">
                    <mxGeometry relative="1" as="geometry">
                        <mxPoint x="340" y="505" as="sourcePoint"/>
                    </mxGeometry>
                </mxCell>
                <mxCell id="58" value="Assign an Order" style="whiteSpace=wrap;html=1;rounded=1;arcSize=50;align=center;verticalAlign=middle;strokeWidth=1;autosize=1;spacing=4;treeFolding=1;treeMoving=1;newEdgeStyle={&quot;edgeStyle&quot;:&quot;entityRelationEdgeStyle&quot;,&quot;startArrow&quot;:&quot;none&quot;,&quot;endArrow&quot;:&quot;none&quot;,&quot;segment&quot;:10,&quot;curved&quot;:1,&quot;sourcePerimeterSpacing&quot;:0,&quot;targetPerimeterSpacing&quot;:0};fillColor=#d80073;fontColor=#ffffff;strokeColor=#A50040;" parent="2" vertex="1">
                    <mxGeometry x="1270" y="405" width="130" height="30" as="geometry"/>
                </mxCell>
                <mxCell id="59" value="" style="edgeStyle=entityRelationEdgeStyle;startArrow=none;endArrow=none;segment=10;curved=1;sourcePerimeterSpacing=0;targetPerimeterSpacing=0;" parent="2" source="46" target="60" edge="1">
                    <mxGeometry relative="1" as="geometry">
                        <mxPoint x="340" y="505" as="sourcePoint"/>
                    </mxGeometry>
                </mxCell>
                <mxCell id="60" value="Remove employee" style="whiteSpace=wrap;html=1;rounded=1;arcSize=50;align=center;verticalAlign=middle;strokeWidth=1;autosize=1;spacing=4;treeFolding=1;treeMoving=1;newEdgeStyle={&quot;edgeStyle&quot;:&quot;entityRelationEdgeStyle&quot;,&quot;startArrow&quot;:&quot;none&quot;,&quot;endArrow&quot;:&quot;none&quot;,&quot;segment&quot;:10,&quot;curved&quot;:1,&quot;sourcePerimeterSpacing&quot;:0,&quot;targetPerimeterSpacing&quot;:0};fillColor=#d80073;fontColor=#ffffff;strokeColor=#A50040;" parent="2" vertex="1">
                    <mxGeometry x="1270" y="460" width="140" height="30" as="geometry"/>
                </mxCell>
                <mxCell id="61" value="" style="edgeStyle=entityRelationEdgeStyle;startArrow=none;endArrow=none;segment=10;curved=1;sourcePerimeterSpacing=0;targetPerimeterSpacing=0;" parent="2" source="42" target="62" edge="1">
                    <mxGeometry relative="1" as="geometry">
                        <mxPoint x="340" y="505" as="sourcePoint"/>
                    </mxGeometry>
                </mxCell>
                <mxCell id="62" value="Editing" style="whiteSpace=wrap;html=1;rounded=1;arcSize=50;align=center;verticalAlign=middle;strokeWidth=1;autosize=1;spacing=4;treeFolding=1;treeMoving=1;newEdgeStyle={&quot;edgeStyle&quot;:&quot;entityRelationEdgeStyle&quot;,&quot;startArrow&quot;:&quot;none&quot;,&quot;endArrow&quot;:&quot;none&quot;,&quot;segment&quot;:10,&quot;curved&quot;:1,&quot;sourcePerimeterSpacing&quot;:0,&quot;targetPerimeterSpacing&quot;:0};fillColor=#d80073;fontColor=#ffffff;strokeColor=#A50040;" parent="2" vertex="1">
                    <mxGeometry x="1375" y="290" width="80" height="30" as="geometry"/>
                </mxCell>
                <mxCell id="83" value="" style="edgeStyle=entityRelationEdgeStyle;startArrow=none;endArrow=none;segment=10;curved=1;sourcePerimeterSpacing=0;targetPerimeterSpacing=0;" parent="2" source="17" target="84" edge="1">
                    <mxGeometry relative="1" as="geometry">
                        <mxPoint x="290" y="455" as="sourcePoint"/>
                    </mxGeometry>
                </mxCell>
                <mxCell id="84" value="Delivery partner" style="whiteSpace=wrap;html=1;rounded=1;arcSize=50;align=center;verticalAlign=middle;strokeWidth=1;autosize=1;spacing=4;treeFolding=1;treeMoving=1;newEdgeStyle={&quot;edgeStyle&quot;:&quot;entityRelationEdgeStyle&quot;,&quot;startArrow&quot;:&quot;none&quot;,&quot;endArrow&quot;:&quot;none&quot;,&quot;segment&quot;:10,&quot;curved&quot;:1,&quot;sourcePerimeterSpacing&quot;:0,&quot;targetPerimeterSpacing&quot;:0};" parent="2" vertex="1">
                    <mxGeometry x="1035" y="570" width="130" height="30" as="geometry"/>
                </mxCell>
                <mxCell id="69" value="Eatery" style="swimlane;startSize=20;horizontal=1;containerType=tree;" parent="1" vertex="1">
                    <mxGeometry x="-320" y="1200" width="840" height="290" as="geometry"/>
                </mxCell>
                <mxCell id="70" value="" style="edgeStyle=entityRelationEdgeStyle;startArrow=none;endArrow=none;segment=10;curved=1;sourcePerimeterSpacing=0;targetPerimeterSpacing=0;" parent="69" source="106" target="75" edge="1">
                    <mxGeometry relative="1" as="geometry"/>
                </mxCell>
                <mxCell id="72" value="" style="edgeStyle=entityRelationEdgeStyle;startArrow=none;endArrow=none;segment=10;curved=1;sourcePerimeterSpacing=0;targetPerimeterSpacing=0;" parent="69" source="106" target="77" edge="1">
                    <mxGeometry relative="1" as="geometry"/>
                </mxCell>
                <mxCell id="74" value="Eatery" style="ellipse;whiteSpace=wrap;html=1;align=center;treeFolding=1;treeMoving=1;newEdgeStyle={&quot;edgeStyle&quot;:&quot;entityRelationEdgeStyle&quot;,&quot;startArrow&quot;:&quot;none&quot;,&quot;endArrow&quot;:&quot;none&quot;,&quot;segment&quot;:10,&quot;curved&quot;:1,&quot;sourcePerimeterSpacing&quot;:0,&quot;targetPerimeterSpacing&quot;:0};" parent="69" vertex="1">
                    <mxGeometry x="150" y="50" width="100" height="40" as="geometry"/>
                </mxCell>
                <mxCell id="75" value="Tables" style="whiteSpace=wrap;html=1;rounded=1;arcSize=50;align=center;verticalAlign=middle;strokeWidth=1;autosize=1;spacing=4;treeFolding=1;treeMoving=1;newEdgeStyle={&quot;edgeStyle&quot;:&quot;entityRelationEdgeStyle&quot;,&quot;startArrow&quot;:&quot;none&quot;,&quot;endArrow&quot;:&quot;none&quot;,&quot;segment&quot;:10,&quot;curved&quot;:1,&quot;sourcePerimeterSpacing&quot;:0,&quot;targetPerimeterSpacing&quot;:0};" parent="69" vertex="1">
                    <mxGeometry x="570" y="240" width="80" height="30" as="geometry"/>
                </mxCell>
                <mxCell id="77" value="Meals" style="whiteSpace=wrap;html=1;rounded=1;arcSize=50;align=center;verticalAlign=middle;strokeWidth=1;autosize=1;spacing=4;treeFolding=1;treeMoving=1;newEdgeStyle={&quot;edgeStyle&quot;:&quot;entityRelationEdgeStyle&quot;,&quot;startArrow&quot;:&quot;none&quot;,&quot;endArrow&quot;:&quot;none&quot;,&quot;segment&quot;:10,&quot;curved&quot;:1,&quot;sourcePerimeterSpacing&quot;:0,&quot;targetPerimeterSpacing&quot;:0};" parent="69" vertex="1">
                    <mxGeometry x="450" y="20" width="80" height="30" as="geometry"/>
                </mxCell>
                <mxCell id="79" value="" style="edgeStyle=entityRelationEdgeStyle;html=1;startArrow=none;endArrow=none;segment=10;curved=1;sourcePerimeterSpacing=0;targetPerimeterSpacing=0;" parent="69" source="106" target="80" edge="1">
                    <mxGeometry relative="1" as="geometry"/>
                </mxCell>
                <mxCell id="80" value="Drinks" style="ellipse;whiteSpace=wrap;html=1;align=center;treeFolding=1;treeMoving=1;newEdgeStyle={&quot;edgeStyle&quot;:&quot;entityRelationEdgeStyle&quot;,&quot;startArrow&quot;:&quot;none&quot;,&quot;endArrow&quot;:&quot;none&quot;,&quot;segment&quot;:10,&quot;curved&quot;:1,&quot;sourcePerimeterSpacing&quot;:0,&quot;targetPerimeterSpacing&quot;:0};" parent="69" vertex="1">
                    <mxGeometry x="560" y="40" width="100" height="40" as="geometry"/>
                </mxCell>
                <mxCell id="81" value="" style="edgeStyle=entityRelationEdgeStyle;html=1;startArrow=none;endArrow=none;segment=10;curved=1;sourcePerimeterSpacing=0;targetPerimeterSpacing=0;" parent="69" source="106" target="82" edge="1">
                    <mxGeometry relative="1" as="geometry"/>
                </mxCell>
                <mxCell id="82" value="Staff" style="ellipse;whiteSpace=wrap;html=1;align=center;treeFolding=1;treeMoving=1;newEdgeStyle={&quot;edgeStyle&quot;:&quot;entityRelationEdgeStyle&quot;,&quot;startArrow&quot;:&quot;none&quot;,&quot;endArrow&quot;:&quot;none&quot;,&quot;segment&quot;:10,&quot;curved&quot;:1,&quot;sourcePerimeterSpacing&quot;:0,&quot;targetPerimeterSpacing&quot;:0};" parent="69" vertex="1">
                    <mxGeometry x="510" y="100" width="100" height="40" as="geometry"/>
                </mxCell>
                <mxCell id="85" value="" style="edgeStyle=entityRelationEdgeStyle;html=1;startArrow=none;endArrow=none;segment=10;curved=1;sourcePerimeterSpacing=0;targetPerimeterSpacing=0;" parent="69" source="106" target="86" edge="1">
                    <mxGeometry relative="1" as="geometry"/>
                </mxCell>
                <mxCell id="86" value="Promos" style="ellipse;whiteSpace=wrap;html=1;align=center;treeFolding=1;treeMoving=1;newEdgeStyle={&quot;edgeStyle&quot;:&quot;entityRelationEdgeStyle&quot;,&quot;startArrow&quot;:&quot;none&quot;,&quot;endArrow&quot;:&quot;none&quot;,&quot;segment&quot;:10,&quot;curved&quot;:1,&quot;sourcePerimeterSpacing&quot;:0,&quot;targetPerimeterSpacing&quot;:0};" parent="69" vertex="1">
                    <mxGeometry x="650" y="90" width="100" height="40" as="geometry"/>
                </mxCell>
                <mxCell id="87" value="" style="edgeStyle=entityRelationEdgeStyle;html=1;startArrow=none;endArrow=none;segment=10;curved=1;sourcePerimeterSpacing=0;targetPerimeterSpacing=0;" parent="69" source="106" target="88" edge="1">
                    <mxGeometry relative="1" as="geometry"/>
                </mxCell>
                <mxCell id="88" value="Delivery" style="ellipse;whiteSpace=wrap;html=1;align=center;treeFolding=1;treeMoving=1;newEdgeStyle={&quot;edgeStyle&quot;:&quot;entityRelationEdgeStyle&quot;,&quot;startArrow&quot;:&quot;none&quot;,&quot;endArrow&quot;:&quot;none&quot;,&quot;segment&quot;:10,&quot;curved&quot;:1,&quot;sourcePerimeterSpacing&quot;:0,&quot;targetPerimeterSpacing&quot;:0};" parent="69" vertex="1">
                    <mxGeometry x="545" y="160" width="100" height="40" as="geometry"/>
                </mxCell>
                <mxCell id="105" value="" style="edgeStyle=entityRelationEdgeStyle;html=1;startArrow=none;endArrow=none;segment=10;curved=1;sourcePerimeterSpacing=0;targetPerimeterSpacing=0;" parent="69" source="74" target="106" edge="1">
                    <mxGeometry relative="1" as="geometry"/>
                </mxCell>
                <mxCell id="106" value="Master Data" style="ellipse;whiteSpace=wrap;html=1;align=center;treeFolding=1;treeMoving=1;newEdgeStyle={&quot;edgeStyle&quot;:&quot;entityRelationEdgeStyle&quot;,&quot;startArrow&quot;:&quot;none&quot;,&quot;endArrow&quot;:&quot;none&quot;,&quot;segment&quot;:10,&quot;curved&quot;:1,&quot;sourcePerimeterSpacing&quot;:0,&quot;targetPerimeterSpacing&quot;:0};" parent="69" vertex="1">
                    <mxGeometry x="290" y="50" width="100" height="40" as="geometry"/>
                </mxCell>
                <mxCell id="89" value="Guest" style="swimlane;startSize=20;horizontal=1;containerType=tree;" parent="1" vertex="1">
                    <mxGeometry x="-80" y="1587" width="420" height="273" as="geometry"/>
                </mxCell>
                <mxCell id="90" value="" style="edgeStyle=entityRelationEdgeStyle;startArrow=none;endArrow=none;segment=10;curved=1;sourcePerimeterSpacing=0;targetPerimeterSpacing=0;" parent="89" source="94" target="95" edge="1">
                    <mxGeometry relative="1" as="geometry"/>
                </mxCell>
                <mxCell id="92" value="" style="edgeStyle=entityRelationEdgeStyle;startArrow=none;endArrow=none;segment=10;curved=1;sourcePerimeterSpacing=0;targetPerimeterSpacing=0;" parent="89" source="94" target="97" edge="1">
                    <mxGeometry relative="1" as="geometry"/>
                </mxCell>
                <mxCell id="94" value="Guest" style="ellipse;whiteSpace=wrap;html=1;align=center;treeFolding=1;treeMoving=1;newEdgeStyle={&quot;edgeStyle&quot;:&quot;entityRelationEdgeStyle&quot;,&quot;startArrow&quot;:&quot;none&quot;,&quot;endArrow&quot;:&quot;none&quot;,&quot;segment&quot;:10,&quot;curved&quot;:1,&quot;sourcePerimeterSpacing&quot;:0,&quot;targetPerimeterSpacing&quot;:0};" parent="89" vertex="1">
                    <mxGeometry x="160" y="60" width="100" height="40" as="geometry"/>
                </mxCell>
                <mxCell id="95" value="Book" style="whiteSpace=wrap;html=1;rounded=1;arcSize=50;align=center;verticalAlign=middle;strokeWidth=1;autosize=1;spacing=4;treeFolding=1;treeMoving=1;newEdgeStyle={&quot;edgeStyle&quot;:&quot;entityRelationEdgeStyle&quot;,&quot;startArrow&quot;:&quot;none&quot;,&quot;endArrow&quot;:&quot;none&quot;,&quot;segment&quot;:10,&quot;curved&quot;:1,&quot;sourcePerimeterSpacing&quot;:0,&quot;targetPerimeterSpacing&quot;:0};" parent="89" vertex="1">
                    <mxGeometry x="325" y="35" width="70" height="30" as="geometry"/>
                </mxCell>
                <mxCell id="97" value="Register" style="whiteSpace=wrap;html=1;rounded=1;arcSize=50;align=center;verticalAlign=middle;strokeWidth=1;autosize=1;spacing=4;treeFolding=1;treeMoving=1;newEdgeStyle={&quot;edgeStyle&quot;:&quot;entityRelationEdgeStyle&quot;,&quot;startArrow&quot;:&quot;none&quot;,&quot;endArrow&quot;:&quot;none&quot;,&quot;segment&quot;:10,&quot;curved&quot;:1,&quot;sourcePerimeterSpacing&quot;:0,&quot;targetPerimeterSpacing&quot;:0};" parent="89" vertex="1">
                    <mxGeometry x="15" y="35" width="90" height="30" as="geometry"/>
                </mxCell>
                <mxCell id="99" value="" style="edgeStyle=entityRelationEdgeStyle;html=1;startArrow=none;endArrow=none;segment=10;curved=1;sourcePerimeterSpacing=0;targetPerimeterSpacing=0;" parent="89" source="94" target="100" edge="1">
                    <mxGeometry relative="1" as="geometry"/>
                </mxCell>
                <mxCell id="100" value="Order" style="ellipse;whiteSpace=wrap;html=1;align=center;treeFolding=1;treeMoving=1;newEdgeStyle={&quot;edgeStyle&quot;:&quot;entityRelationEdgeStyle&quot;,&quot;startArrow&quot;:&quot;none&quot;,&quot;endArrow&quot;:&quot;none&quot;,&quot;segment&quot;:10,&quot;curved&quot;:1,&quot;sourcePerimeterSpacing&quot;:0,&quot;targetPerimeterSpacing&quot;:0};" parent="89" vertex="1">
                    <mxGeometry x="310" y="80" width="100" height="40" as="geometry"/>
                </mxCell>
                <mxCell id="101" value="" style="edgeStyle=entityRelationEdgeStyle;html=1;startArrow=none;endArrow=none;segment=10;curved=1;sourcePerimeterSpacing=0;targetPerimeterSpacing=0;" parent="89" source="94" target="102" edge="1">
                    <mxGeometry relative="1" as="geometry"/>
                </mxCell>
                <mxCell id="102" value="Pay" style="ellipse;whiteSpace=wrap;html=1;align=center;treeFolding=1;treeMoving=1;newEdgeStyle={&quot;edgeStyle&quot;:&quot;entityRelationEdgeStyle&quot;,&quot;startArrow&quot;:&quot;none&quot;,&quot;endArrow&quot;:&quot;none&quot;,&quot;segment&quot;:10,&quot;curved&quot;:1,&quot;sourcePerimeterSpacing&quot;:0,&quot;targetPerimeterSpacing&quot;:0};" parent="89" vertex="1">
                    <mxGeometry x="310" y="133" width="100" height="40" as="geometry"/>
                </mxCell>
                <mxCell id="103" value="" style="edgeStyle=entityRelationEdgeStyle;html=1;startArrow=none;endArrow=none;segment=10;curved=1;sourcePerimeterSpacing=0;targetPerimeterSpacing=0;" parent="89" source="94" target="104" edge="1">
                    <mxGeometry relative="1" as="geometry"/>
                </mxCell>
                <mxCell id="104" value="Tip" style="ellipse;whiteSpace=wrap;html=1;align=center;treeFolding=1;treeMoving=1;newEdgeStyle={&quot;edgeStyle&quot;:&quot;entityRelationEdgeStyle&quot;,&quot;startArrow&quot;:&quot;none&quot;,&quot;endArrow&quot;:&quot;none&quot;,&quot;segment&quot;:10,&quot;curved&quot;:1,&quot;sourcePerimeterSpacing&quot;:0,&quot;targetPerimeterSpacing&quot;:0};" parent="89" vertex="1">
                    <mxGeometry x="310" y="193" width="100" height="40" as="geometry"/>
                </mxCell>
                <mxCell id="109" value="" style="edgeStyle=entityRelationEdgeStyle;startArrow=none;endArrow=none;segment=10;curved=1;sourcePerimeterSpacing=0;targetPerimeterSpacing=0;" parent="89" source="97" target="110" edge="1">
                    <mxGeometry relative="1" as="geometry">
                        <mxPoint x="80" y="1667" as="sourcePoint"/>
                    </mxGeometry>
                </mxCell>
                <mxCell id="110" value="By QR Code on table" style="whiteSpace=wrap;html=1;rounded=1;arcSize=50;align=center;verticalAlign=middle;strokeWidth=1;autosize=1;spacing=4;treeFolding=1;treeMoving=1;newEdgeStyle={&quot;edgeStyle&quot;:&quot;entityRelationEdgeStyle&quot;,&quot;startArrow&quot;:&quot;none&quot;,&quot;endArrow&quot;:&quot;none&quot;,&quot;segment&quot;:10,&quot;curved&quot;:1,&quot;sourcePerimeterSpacing&quot;:0,&quot;targetPerimeterSpacing&quot;:0};" parent="89" vertex="1">
                    <mxGeometry x="-150" y="35" width="160" height="30" as="geometry"/>
                </mxCell>
                <mxCell id="115" value="" style="edgeStyle=entityRelationEdgeStyle;startArrow=none;endArrow=none;segment=10;curved=1;sourcePerimeterSpacing=0;targetPerimeterSpacing=0;" parent="89" source="97" target="116" edge="1">
                    <mxGeometry relative="1" as="geometry">
                        <mxPoint x="-65" y="1637" as="sourcePoint"/>
                    </mxGeometry>
                </mxCell>
                <mxCell id="116" value="By telegram" style="whiteSpace=wrap;html=1;rounded=1;arcSize=50;align=center;verticalAlign=middle;strokeWidth=1;autosize=1;spacing=4;treeFolding=1;treeMoving=1;newEdgeStyle={&quot;edgeStyle&quot;:&quot;entityRelationEdgeStyle&quot;,&quot;startArrow&quot;:&quot;none&quot;,&quot;endArrow&quot;:&quot;none&quot;,&quot;segment&quot;:10,&quot;curved&quot;:1,&quot;sourcePerimeterSpacing&quot;:0,&quot;targetPerimeterSpacing&quot;:0};" parent="89" vertex="1">
                    <mxGeometry x="-45" y="115.00000000000006" width="110" height="30" as="geometry"/>
                </mxCell>
                <mxCell id="120" value="" style="edgeStyle=entityRelationEdgeStyle;startArrow=none;endArrow=none;segment=10;curved=1;sourcePerimeterSpacing=0;targetPerimeterSpacing=0;" parent="89" source="97" target="121" edge="1">
                    <mxGeometry relative="1" as="geometry">
                        <mxPoint x="-65" y="1637" as="sourcePoint"/>
                    </mxGeometry>
                </mxCell>
                <mxCell id="121" value="By Eatery" style="whiteSpace=wrap;html=1;rounded=1;arcSize=50;align=center;verticalAlign=middle;strokeWidth=1;autosize=1;spacing=4;treeFolding=1;treeMoving=1;newEdgeStyle={&quot;edgeStyle&quot;:&quot;entityRelationEdgeStyle&quot;,&quot;startArrow&quot;:&quot;none&quot;,&quot;endArrow&quot;:&quot;none&quot;,&quot;segment&quot;:10,&quot;curved&quot;:1,&quot;sourcePerimeterSpacing&quot;:0,&quot;targetPerimeterSpacing&quot;:0};" parent="89" vertex="1">
                    <mxGeometry x="-120" y="75" width="100" height="30" as="geometry"/>
                </mxCell>
                <mxCell id="122" value="" style="edgeStyle=entityRelationEdgeStyle;startArrow=none;endArrow=none;segment=10;curved=1;sourcePerimeterSpacing=0;targetPerimeterSpacing=0;" parent="89" source="97" target="123" edge="1">
                    <mxGeometry relative="1" as="geometry">
                        <mxPoint x="-65" y="1637" as="sourcePoint"/>
                    </mxGeometry>
                </mxCell>
                <mxCell id="123" value="Permanent Guest device on Table" style="whiteSpace=wrap;html=1;rounded=1;arcSize=50;align=center;verticalAlign=middle;strokeWidth=1;autosize=1;spacing=4;treeFolding=1;treeMoving=1;newEdgeStyle={&quot;edgeStyle&quot;:&quot;entityRelationEdgeStyle&quot;,&quot;startArrow&quot;:&quot;none&quot;,&quot;endArrow&quot;:&quot;none&quot;,&quot;segment&quot;:10,&quot;curved&quot;:1,&quot;sourcePerimeterSpacing&quot;:0,&quot;targetPerimeterSpacing&quot;:0};" parent="89" vertex="1">
                    <mxGeometry x="-185" y="-5" width="230" height="30" as="geometry"/>
                </mxCell>
                <mxCell id="124" value="" style="edgeStyle=entityRelationEdgeStyle;startArrow=none;endArrow=none;segment=10;curved=1;sourcePerimeterSpacing=0;targetPerimeterSpacing=0;" parent="89" source="97" target="125" edge="1">
                    <mxGeometry relative="1" as="geometry">
                        <mxPoint x="25" y="1637" as="sourcePoint"/>
                    </mxGeometry>
                </mxCell>
                <mxCell id="125" value="By QR code on Promo or Ad" style="whiteSpace=wrap;html=1;rounded=1;arcSize=50;align=center;verticalAlign=middle;strokeWidth=1;autosize=1;spacing=4;treeFolding=1;treeMoving=1;newEdgeStyle={&quot;edgeStyle&quot;:&quot;entityRelationEdgeStyle&quot;,&quot;startArrow&quot;:&quot;none&quot;,&quot;endArrow&quot;:&quot;none&quot;,&quot;segment&quot;:10,&quot;curved&quot;:1,&quot;sourcePerimeterSpacing&quot;:0,&quot;targetPerimeterSpacing&quot;:0};" parent="89" vertex="1">
                    <mxGeometry x="-170" y="-45" width="200" height="30" as="geometry"/>
                </mxCell>
            </root>
        </mxGraphModel>
    </diagram>
    <diagram id="mbEjdcJl23mldzWlIYDE" name="Logo">
        <mxGraphModel dx="976" dy="521" grid="1" gridSize="10" guides="1" tooltips="1" connect="1" arrows="1" fold="1" page="1" pageScale="1" pageWidth="850" pageHeight="1100" background="none" math="0" shadow="0">
            <root>
                <mxCell id="0"/>
                <mxCell id="1" parent="0"/>
                <mxCell id="Lawns3I-8KuMfHTy0kHY-2" value="" style="rounded=1;whiteSpace=wrap;html=1;strokeWidth=5;" parent="1" vertex="1">
                    <mxGeometry x="710" y="220" width="40" height="190" as="geometry"/>
                </mxCell>
                <mxCell id="Lawns3I-8KuMfHTy0kHY-3" value="" style="ellipse;whiteSpace=wrap;html=1;strokeWidth=5;fillColor=default;" parent="1" vertex="1">
                    <mxGeometry x="670" y="80" width="120" height="170" as="geometry"/>
                </mxCell>
                <mxCell id="Lawns3I-8KuMfHTy0kHY-4" value="" style="rounded=1;whiteSpace=wrap;html=1;movable=0;resizable=0;rotatable=0;deletable=0;editable=0;connectable=0;" parent="1" vertex="1">
                    <mxGeometry x="70" y="80" width="20" height="150" as="geometry"/>
                </mxCell>
                <mxCell id="Lawns3I-8KuMfHTy0kHY-5" value="" style="rounded=1;whiteSpace=wrap;html=1;movable=0;resizable=0;rotatable=0;deletable=0;editable=0;connectable=0;" parent="1" vertex="1">
                    <mxGeometry x="100" y="80" width="20" height="150" as="geometry"/>
                </mxCell>
                <mxCell id="Lawns3I-8KuMfHTy0kHY-6" value="" style="rounded=1;whiteSpace=wrap;html=1;movable=0;resizable=0;rotatable=0;deletable=0;editable=0;connectable=0;" parent="1" vertex="1">
                    <mxGeometry x="130" y="80" width="20" height="150" as="geometry"/>
                </mxCell>
                <mxCell id="Lawns3I-8KuMfHTy0kHY-7" value="" style="rounded=1;whiteSpace=wrap;html=1;movable=0;resizable=0;rotatable=0;deletable=0;editable=0;connectable=0;" parent="1" vertex="1">
                    <mxGeometry x="90" y="220" width="40" height="190" as="geometry"/>
                </mxCell>
                <mxCell id="Lawns3I-8KuMfHTy0kHY-10" value="" style="rounded=1;whiteSpace=wrap;html=1;strokeWidth=5;" parent="1" vertex="1">
                    <mxGeometry x="610" y="222.5" width="40" height="190" as="geometry"/>
                </mxCell>
                <mxCell id="Lawns3I-8KuMfHTy0kHY-11" value="" style="shape=dataStorage;whiteSpace=wrap;html=1;fixedSize=1;rounded=1;rotation=90;" parent="1" vertex="1">
                    <mxGeometry x="510" y="142.5" width="200" height="80" as="geometry"/>
                </mxCell>
                <mxCell id="Lawns3I-8KuMfHTy0kHY-13" value="" style="rounded=1;whiteSpace=wrap;html=1;strokeWidth=5;movable=0;resizable=0;rotatable=0;deletable=0;editable=0;connectable=0;" parent="1" vertex="1">
                    <mxGeometry x="70" y="80" width="20" height="150" as="geometry"/>
                </mxCell>
                <mxCell id="Lawns3I-8KuMfHTy0kHY-14" value="" style="rounded=1;whiteSpace=wrap;html=1;strokeWidth=5;movable=0;resizable=0;rotatable=0;deletable=0;editable=0;connectable=0;" parent="1" vertex="1">
                    <mxGeometry x="100" y="80" width="20" height="150" as="geometry"/>
                </mxCell>
                <mxCell id="Lawns3I-8KuMfHTy0kHY-15" value="" style="rounded=1;whiteSpace=wrap;html=1;strokeWidth=5;movable=0;resizable=0;rotatable=0;deletable=0;editable=0;connectable=0;" parent="1" vertex="1">
                    <mxGeometry x="130" y="80" width="20" height="150" as="geometry"/>
                </mxCell>
                <mxCell id="Lawns3I-8KuMfHTy0kHY-17" value="" style="ellipse;whiteSpace=wrap;html=1;aspect=fixed;rounded=1;strokeWidth=5;fillColor=default;" parent="1" vertex="1">
                    <mxGeometry x="180" y="62.5" width="350" height="350" as="geometry"/>
                </mxCell>
                <mxCell id="Lawns3I-8KuMfHTy0kHY-16" value="" style="rounded=1;whiteSpace=wrap;html=1;strokeWidth=5;movable=1;resizable=1;rotatable=1;deletable=1;editable=1;connectable=1;" parent="1" vertex="1">
                    <mxGeometry x="90" y="220" width="40" height="190" as="geometry"/>
                </mxCell>
                <mxCell id="Lawns3I-8KuMfHTy0kHY-18" value="" style="ellipse;whiteSpace=wrap;html=1;aspect=fixed;rounded=1;strokeWidth=5;fillColor=default;" parent="1" vertex="1">
                    <mxGeometry x="252.5" y="135" width="205" height="205" as="geometry"/>
                </mxCell>
                <mxCell id="Lawns3I-8KuMfHTy0kHY-19" value="" style="shape=dataStorage;whiteSpace=wrap;html=1;fixedSize=1;rounded=1;rotation=90;strokeWidth=5;fillColor=default;" parent="1" vertex="1">
                    <mxGeometry x="510" y="142.5" width="200" height="80" as="geometry"/>
                </mxCell>
            </root>
        </mxGraphModel>
    </diagram>
    <diagram id="PwU9OMVeXYT1HDFZD_Bn" name="Page-3">
        <mxGraphModel dx="976" dy="521" grid="1" gridSize="10" guides="1" tooltips="1" connect="1" arrows="1" fold="1" page="1" pageScale="1" pageWidth="850" pageHeight="1100" math="0" shadow="0">
            <root>
                <mxCell id="0"/>
                <mxCell id="1" parent="0"/>
                <mxCell id="r1e91qE2ydu2nTL_ezKz-12" value="" style="ellipse;whiteSpace=wrap;html=1;aspect=fixed;rounded=1;strokeWidth=5;fillColor=default;" parent="1" vertex="1">
                    <mxGeometry x="180" y="62.5" width="350" height="350" as="geometry"/>
                </mxCell>
                <mxCell id="r1e91qE2ydu2nTL_ezKz-14" value="" style="ellipse;whiteSpace=wrap;html=1;aspect=fixed;rounded=1;strokeWidth=5;fillColor=default;" parent="1" vertex="1">
                    <mxGeometry x="252.5" y="135" width="205" height="205" as="geometry"/>
                </mxCell>
                <mxCell id="r1e91qE2ydu2nTL_ezKz-17" value="" style="group;rotation=-45;" parent="1" vertex="1" connectable="0">
                    <mxGeometry x="520" y="120" width="100" height="330" as="geometry"/>
                </mxCell>
                <mxCell id="r1e91qE2ydu2nTL_ezKz-7" value="" style="rounded=1;whiteSpace=wrap;html=1;strokeWidth=5;rotation=-45;" parent="r1e91qE2ydu2nTL_ezKz-17" vertex="1">
                    <mxGeometry x="84" y="105" width="40" height="190" as="geometry"/>
                </mxCell>
                <mxCell id="r1e91qE2ydu2nTL_ezKz-15" value="" style="shape=dataStorage;whiteSpace=wrap;html=1;fixedSize=1;rounded=1;rotation=45;strokeWidth=5;fillColor=default;" parent="r1e91qE2ydu2nTL_ezKz-17" vertex="1">
                    <mxGeometry x="-106" y="79" width="200" height="80" as="geometry"/>
                </mxCell>
                <mxCell id="r1e91qE2ydu2nTL_ezKz-16" value="" style="group;rotation=45;" parent="r1e91qE2ydu2nTL_ezKz-17" vertex="1" connectable="0">
                    <mxGeometry x="-400" y="10" width="80" height="330" as="geometry"/>
                </mxCell>
                <mxCell id="r1e91qE2ydu2nTL_ezKz-9" value="" style="rounded=1;whiteSpace=wrap;html=1;strokeWidth=5;movable=1;resizable=1;rotatable=1;deletable=1;editable=1;connectable=1;rotation=45;" parent="r1e91qE2ydu2nTL_ezKz-16" vertex="1">
                    <mxGeometry x="72" y="5" width="20" height="150" as="geometry"/>
                </mxCell>
                <mxCell id="r1e91qE2ydu2nTL_ezKz-10" value="" style="rounded=1;whiteSpace=wrap;html=1;strokeWidth=5;movable=1;resizable=1;rotatable=1;deletable=1;editable=1;connectable=1;rotation=45;" parent="r1e91qE2ydu2nTL_ezKz-16" vertex="1">
                    <mxGeometry x="94" y="26" width="20" height="150" as="geometry"/>
                </mxCell>
                <mxCell id="r1e91qE2ydu2nTL_ezKz-11" value="" style="rounded=1;whiteSpace=wrap;html=1;strokeWidth=5;movable=1;resizable=1;rotatable=1;deletable=1;editable=1;connectable=1;rotation=45;" parent="r1e91qE2ydu2nTL_ezKz-16" vertex="1">
                    <mxGeometry x="115" y="48" width="20" height="150" as="geometry"/>
                </mxCell>
                <mxCell id="r1e91qE2ydu2nTL_ezKz-13" value="" style="rounded=1;whiteSpace=wrap;html=1;strokeWidth=5;movable=1;resizable=1;rotatable=1;deletable=1;editable=1;connectable=1;rotation=45;" parent="r1e91qE2ydu2nTL_ezKz-16" vertex="1">
                    <mxGeometry x="-29" y="119" width="40" height="190" as="geometry"/>
                </mxCell>
            </root>
        </mxGraphModel>
    </diagram>
    <diagram id="0AeeS-_5qF2uQqyX66xQ" name="Page-4">
        <mxGraphModel dx="976" dy="521" grid="1" gridSize="10" guides="1" tooltips="1" connect="1" arrows="1" fold="1" page="1" pageScale="1" pageWidth="850" pageHeight="1100" math="0" shadow="0">
            <root>
                <mxCell id="0"/>
                <mxCell id="1" parent="0"/>
                <mxCell id="0e3B2KfHzzjM_Ct76Dje-7" value="" style="rounded=1;whiteSpace=wrap;html=1;strokeWidth=5;" parent="1" vertex="1">
                    <mxGeometry x="557.5" y="215" width="40" height="190" as="geometry"/>
                </mxCell>
                <mxCell id="0e3B2KfHzzjM_Ct76Dje-8" value="" style="shape=dataStorage;whiteSpace=wrap;html=1;fixedSize=1;rounded=1;rotation=90;" parent="1" vertex="1">
                    <mxGeometry x="457.5" y="135" width="200" height="80" as="geometry"/>
                </mxCell>
                <mxCell id="0e3B2KfHzzjM_Ct76Dje-12" value="" style="ellipse;whiteSpace=wrap;html=1;aspect=fixed;rounded=1;strokeWidth=5;fillColor=default;" parent="1" vertex="1">
                    <mxGeometry x="180" y="62.5" width="350" height="350" as="geometry"/>
                </mxCell>
                <mxCell id="0e3B2KfHzzjM_Ct76Dje-14" value="" style="ellipse;whiteSpace=wrap;html=1;aspect=fixed;rounded=1;strokeWidth=5;fillColor=default;" parent="1" vertex="1">
                    <mxGeometry x="252.5" y="135" width="205" height="205" as="geometry"/>
                </mxCell>
                <mxCell id="0e3B2KfHzzjM_Ct76Dje-15" value="" style="shape=dataStorage;whiteSpace=wrap;html=1;fixedSize=1;rounded=1;rotation=90;strokeWidth=5;fillColor=default;" parent="1" vertex="1">
                    <mxGeometry x="457.5" y="135" width="200" height="80" as="geometry"/>
                </mxCell>
                <mxCell id="K5tsjm2qGg_1-Z1sc9VB-1" value="" style="group" parent="1" vertex="1" connectable="0">
                    <mxGeometry x="120" y="80" width="80" height="330" as="geometry"/>
                </mxCell>
                <mxCell id="0e3B2KfHzzjM_Ct76Dje-3" value="" style="rounded=1;whiteSpace=wrap;html=1;movable=1;resizable=1;rotatable=1;deletable=1;editable=1;connectable=1;" parent="K5tsjm2qGg_1-Z1sc9VB-1" vertex="1">
                    <mxGeometry width="20" height="150" as="geometry"/>
                </mxCell>
                <mxCell id="0e3B2KfHzzjM_Ct76Dje-4" value="" style="rounded=1;whiteSpace=wrap;html=1;movable=1;resizable=1;rotatable=1;deletable=1;editable=1;connectable=1;" parent="K5tsjm2qGg_1-Z1sc9VB-1" vertex="1">
                    <mxGeometry x="30" width="20" height="150" as="geometry"/>
                </mxCell>
                <mxCell id="0e3B2KfHzzjM_Ct76Dje-5" value="" style="rounded=1;whiteSpace=wrap;html=1;movable=1;resizable=1;rotatable=1;deletable=1;editable=1;connectable=1;" parent="K5tsjm2qGg_1-Z1sc9VB-1" vertex="1">
                    <mxGeometry x="60" width="20" height="150" as="geometry"/>
                </mxCell>
                <mxCell id="0e3B2KfHzzjM_Ct76Dje-6" value="" style="rounded=1;whiteSpace=wrap;html=1;movable=0;resizable=0;rotatable=0;deletable=0;editable=0;connectable=0;" parent="K5tsjm2qGg_1-Z1sc9VB-1" vertex="1">
                    <mxGeometry x="20" y="140" width="40" height="190" as="geometry"/>
                </mxCell>
                <mxCell id="0e3B2KfHzzjM_Ct76Dje-9" value="" style="rounded=1;whiteSpace=wrap;html=1;strokeWidth=5;movable=1;resizable=1;rotatable=1;deletable=1;editable=1;connectable=1;" parent="K5tsjm2qGg_1-Z1sc9VB-1" vertex="1">
                    <mxGeometry width="20" height="150" as="geometry"/>
                </mxCell>
                <mxCell id="0e3B2KfHzzjM_Ct76Dje-10" value="" style="rounded=1;whiteSpace=wrap;html=1;strokeWidth=5;movable=1;resizable=1;rotatable=1;deletable=1;editable=1;connectable=1;" parent="K5tsjm2qGg_1-Z1sc9VB-1" vertex="1">
                    <mxGeometry x="30" width="20" height="150" as="geometry"/>
                </mxCell>
                <mxCell id="0e3B2KfHzzjM_Ct76Dje-11" value="" style="rounded=1;whiteSpace=wrap;html=1;strokeWidth=5;movable=1;resizable=1;rotatable=1;deletable=1;editable=1;connectable=1;" parent="K5tsjm2qGg_1-Z1sc9VB-1" vertex="1">
                    <mxGeometry x="60" width="20" height="150" as="geometry"/>
                </mxCell>
                <mxCell id="0e3B2KfHzzjM_Ct76Dje-13" value="" style="rounded=1;whiteSpace=wrap;html=1;strokeWidth=5;movable=1;resizable=1;rotatable=1;deletable=1;editable=1;connectable=1;" parent="K5tsjm2qGg_1-Z1sc9VB-1" vertex="1">
                    <mxGeometry x="20" y="140" width="40" height="190" as="geometry"/>
                </mxCell>
            </root>
        </mxGraphModel>
    </diagram>
    <diagram id="jTHscgTDjYTyQJ5LuNgF" name="Page-5">
        <mxGraphModel dx="1394" dy="744" grid="1" gridSize="10" guides="1" tooltips="1" connect="1" arrows="1" fold="1" page="1" pageScale="1" pageWidth="850" pageHeight="1100" math="0" shadow="0">
            <root>
                <mxCell id="0"/>
                <mxCell id="1" parent="0"/>
                <mxCell id="ucIkZ5DCoD3hftIoYPTw-1" value="" style="endArrow=none;html=1;" parent="1" edge="1">
                    <mxGeometry width="50" height="50" relative="1" as="geometry">
                        <mxPoint x="390" y="800" as="sourcePoint"/>
                        <mxPoint x="400" y="520" as="targetPoint"/>
                    </mxGeometry>
                </mxCell>
                <mxCell id="ucIkZ5DCoD3hftIoYPTw-2" value="" style="endArrow=none;html=1;" parent="1" edge="1">
                    <mxGeometry width="50" height="50" relative="1" as="geometry">
                        <mxPoint x="450" y="800" as="sourcePoint"/>
                        <mxPoint x="420" as="targetPoint"/>
                    </mxGeometry>
                </mxCell>
                <mxCell id="ucIkZ5DCoD3hftIoYPTw-4" value="" style="ellipse;whiteSpace=wrap;html=1;aspect=fixed;" parent="1" vertex="1">
                    <mxGeometry x="390" y="770" width="60" height="60" as="geometry"/>
                </mxCell>
                <mxCell id="ucIkZ5DCoD3hftIoYPTw-5" value="" style="endArrow=none;html=1;" parent="1" edge="1">
                    <mxGeometry width="50" height="50" relative="1" as="geometry">
                        <mxPoint x="400" y="520" as="sourcePoint"/>
                        <mxPoint x="360" y="520" as="targetPoint"/>
                    </mxGeometry>
                </mxCell>
                <mxCell id="ucIkZ5DCoD3hftIoYPTw-6" value="" style="ellipse;whiteSpace=wrap;html=1;fillColor=none;rotation=0;" parent="1" vertex="1">
                    <mxGeometry x="360" width="120" height="1040" as="geometry">
                        <mxPoint x="10" y="20" as="offset"/>
                    </mxGeometry>
                </mxCell>
                <mxCell id="ucIkZ5DCoD3hftIoYPTw-7" value="" style="endArrow=none;html=1;entryX=0.436;entryY=1.015;entryDx=0;entryDy=0;entryPerimeter=0;" parent="1" target="ucIkZ5DCoD3hftIoYPTw-13" edge="1">
                    <mxGeometry width="50" height="50" relative="1" as="geometry">
                        <mxPoint x="630" y="800" as="sourcePoint"/>
                        <mxPoint x="650" y="240" as="targetPoint"/>
                    </mxGeometry>
                </mxCell>
                <mxCell id="ucIkZ5DCoD3hftIoYPTw-8" value="" style="endArrow=none;html=1;entryX=0.574;entryY=1.009;entryDx=0;entryDy=0;entryPerimeter=0;" parent="1" target="ucIkZ5DCoD3hftIoYPTw-13" edge="1">
                    <mxGeometry width="50" height="50" relative="1" as="geometry">
                        <mxPoint x="690" y="800" as="sourcePoint"/>
                        <mxPoint x="670" y="240" as="targetPoint"/>
                    </mxGeometry>
                </mxCell>
                <mxCell id="ucIkZ5DCoD3hftIoYPTw-9" value="" style="ellipse;whiteSpace=wrap;html=1;aspect=fixed;" parent="1" vertex="1">
                    <mxGeometry x="630" y="770" width="60" height="60" as="geometry"/>
                </mxCell>
                <mxCell id="ucIkZ5DCoD3hftIoYPTw-14" value="" style="ellipse;whiteSpace=wrap;html=1;fillColor=none;rotation=90;" parent="1" vertex="1">
                    <mxGeometry x="461.57" y="98.43" width="396.87" height="200" as="geometry"/>
                </mxCell>
                <mxCell id="ucIkZ5DCoD3hftIoYPTw-13" value="" style="ellipse;whiteSpace=wrap;html=1;fillColor=none;" parent="1" vertex="1">
                    <mxGeometry x="560" y="90" width="200" height="210" as="geometry"/>
                </mxCell>
            </root>
        </mxGraphModel>
    </diagram>
    <diagram id="_7gJOMeDk7eh5rpTOalw" name="Page-6">
        <mxGraphModel dx="976" dy="521" grid="1" gridSize="10" guides="1" tooltips="1" connect="1" arrows="1" fold="1" page="1" pageScale="1" pageWidth="850" pageHeight="1100" math="0" shadow="0">
            <root>
                <mxCell id="0"/>
                <mxCell id="1" parent="0"/>
                <mxCell id="sFayOhY1SASKQW5y_VPI-1" value="" style="ellipse;whiteSpace=wrap;html=1;fillColor=none;" parent="1" vertex="1">
                    <mxGeometry width="20" height="200" as="geometry"/>
                </mxCell>
                <mxCell id="sFayOhY1SASKQW5y_VPI-10" value="" style="ellipse;whiteSpace=wrap;html=1;fillColor=none;" parent="1" vertex="1">
                    <mxGeometry x="50" width="20" height="200" as="geometry"/>
                </mxCell>
                <mxCell id="sFayOhY1SASKQW5y_VPI-2" value="" style="endArrow=none;html=1;startArrow=none;" parent="1" source="sFayOhY1SASKQW5y_VPI-1" edge="1">
                    <mxGeometry width="50" height="50" relative="1" as="geometry">
                        <mxPoint x="10" y="80" as="sourcePoint"/>
                        <mxPoint x="10" as="targetPoint"/>
                    </mxGeometry>
                </mxCell>
                <mxCell id="sFayOhY1SASKQW5y_VPI-3" value="" style="endArrow=none;html=1;exitX=0;exitY=0.5;exitDx=0;exitDy=0;entryX=0.5;entryY=0;entryDx=0;entryDy=0;" parent="1" source="sFayOhY1SASKQW5y_VPI-4" target="sFayOhY1SASKQW5y_VPI-1" edge="1">
                    <mxGeometry width="50" height="50" relative="1" as="geometry">
                        <mxPoint x="10" y="80" as="sourcePoint"/>
                        <mxPoint x="-40" as="targetPoint"/>
                    </mxGeometry>
                </mxCell>
                <mxCell id="sFayOhY1SASKQW5y_VPI-4" value="" style="ellipse;whiteSpace=wrap;html=1;fillColor=none;" parent="1" vertex="1">
                    <mxGeometry x="10" y="90" width="10" height="20" as="geometry"/>
                </mxCell>
                <mxCell id="sFayOhY1SASKQW5y_VPI-5" value="" style="ellipse;whiteSpace=wrap;html=1;fillColor=none;" parent="1" vertex="1">
                    <mxGeometry x="20" width="10" height="200" as="geometry"/>
                </mxCell>
                <mxCell id="sFayOhY1SASKQW5y_VPI-6" value="" style="ellipse;whiteSpace=wrap;html=1;fillColor=none;" parent="1" vertex="1">
                    <mxGeometry x="30" y="90" width="10" height="20" as="geometry"/>
                </mxCell>
                <mxCell id="sFayOhY1SASKQW5y_VPI-7" value="" style="ellipse;whiteSpace=wrap;html=1;fillColor=none;" parent="1" vertex="1">
                    <mxGeometry x="50" y="90" width="10" height="20" as="geometry"/>
                </mxCell>
                <mxCell id="sFayOhY1SASKQW5y_VPI-8" value="" style="ellipse;whiteSpace=wrap;html=1;fillColor=none;" parent="1" vertex="1">
                    <mxGeometry x="40" width="10" height="200" as="geometry"/>
                </mxCell>
                <mxCell id="sFayOhY1SASKQW5y_VPI-9" value="" style="endArrow=none;html=1;exitX=1;exitY=0.5;exitDx=0;exitDy=0;" parent="1" source="sFayOhY1SASKQW5y_VPI-7" edge="1">
                    <mxGeometry width="50" height="50" relative="1" as="geometry">
                        <mxPoint x="60" y="80" as="sourcePoint"/>
                        <mxPoint x="60" as="targetPoint"/>
                    </mxGeometry>
                </mxCell>
                <mxCell id="sFayOhY1SASKQW5y_VPI-11" value="" style="ellipse;whiteSpace=wrap;html=1;fillColor=none;" parent="1" vertex="1">
                    <mxGeometry y="25" width="70" height="150" as="geometry"/>
                </mxCell>
                <mxCell id="sFayOhY1SASKQW5y_VPI-12" value="" style="ellipse;whiteSpace=wrap;html=1;fillColor=none;" parent="1" vertex="1">
                    <mxGeometry x="50" y="140" width="40" height="200" as="geometry"/>
                </mxCell>
                <mxCell id="sFayOhY1SASKQW5y_VPI-14" value="" style="rounded=0;whiteSpace=wrap;html=1;fillColor=none;" parent="1" vertex="1">
                    <mxGeometry x="20" y="210" width="30" height="60" as="geometry"/>
                </mxCell>
                <mxCell id="sFayOhY1SASKQW5y_VPI-15" value="" style="ellipse;whiteSpace=wrap;html=1;fillColor=none;" parent="1" vertex="1">
                    <mxGeometry x="50" y="40" width="20" height="400" as="geometry"/>
                </mxCell>
                <mxCell id="sFayOhY1SASKQW5y_VPI-17" value="" style="ellipse;whiteSpace=wrap;html=1;fillColor=none;" parent="1" vertex="1">
                    <mxGeometry y="40" width="20" height="400" as="geometry"/>
                </mxCell>
                <mxCell id="sFayOhY1SASKQW5y_VPI-18" value="" style="ellipse;whiteSpace=wrap;html=1;fillColor=none;" parent="1" vertex="1">
                    <mxGeometry x="10" y="400" width="50" height="80" as="geometry"/>
                </mxCell>
            </root>
        </mxGraphModel>
    </diagram>
    <diagram id="oYa9rbCz0oAcij5rcq8u" name="Page-7">
        <mxGraphModel grid="1" page="1" gridSize="10" guides="1" tooltips="1" connect="1" arrows="1" fold="1" pageScale="1" pageWidth="850" pageHeight="1100" math="0" shadow="0">
            <root>
                <mxCell id="0"/>
                <mxCell id="1" parent="0"/>
                <mxCell id="DNbBVgyK4wFiBioxaRf0-1" value="" style="rounded=0;whiteSpace=wrap;html=1;fillColor=#cbb26a;strokeColor=#1172B8;strokeWidth=19;" parent="1" vertex="1">
                    <mxGeometry x="160" y="220" width="120" height="60" as="geometry"/>
                </mxCell>
                <mxCell id="DNbBVgyK4wFiBioxaRf0-2" value="" style="rounded=0;whiteSpace=wrap;html=1;strokeColor=#001DBC;strokeWidth=19;fillColor=#0050ef;fontColor=#ffffff;" parent="1" vertex="1">
                    <mxGeometry x="360" y="240" width="120" height="60" as="geometry"/>
                </mxCell>
                <mxCell id="DNbBVgyK4wFiBioxaRf0-3" value="" style="shape=image;verticalLabelPosition=bottom;labelBackgroundColor=default;verticalAlign=top;aspect=fixed;imageAspect=0;image=data:image/png,iVBORw0KGgoAAAANSUhEUgAAAScAAADfCAYAAAC07BWBAAAAAXNSR0IArs4c6QAAAARnQU1BAACxjwv8YQUAAAAJcEhZcwAADsMAAA7DAcdvqGQAACIMSURBVHhe7d0J3MzV/gfwI+mmqGhFJdmStitZy6UoN5IW2yU3ldClXbSTcEVc3OrmEikVkjVCIW0iQrYWtBMtKPSnev7zOb5zn5nfnPN7ZuaZ53F+8/u8X695OWdmzDPmMd/fWb7nnCI5EYqIyDGHyJ9ERE5hcCIiJzE4EZGTGJyIyEkMTkTkJAYnInISgxMROYnBiYicxOBERE5icCIiJzE4EZGTGJyIyEkMTkTkJAYnInISgxMROYnBiYicxOBERE5icCIiJzE4EZGTGJyIyEkMTkTkJAYnInISgxMROYnBiYicxOBERE5icCIiJzE4EZGTiuRESJkcNWHCBDV37lx15JFHqvbt26sLL7xQHkk0adIk9corr6hdu3apiy++WN19993ySLzffvtNDR48WC1cuFAdf/zxqlWrVqply5byaKJVq1apMWPGqO+//141aNBAde3aVR4pPD/88IOaMmWKWrBggdq9e7cqVqyYatOmjb5RFkJwInf17Nkzp1SpUnG3yZMny6Pxhg8fnvDcdu3ayaPxrrzyyoTnjh49Wh6Nt2jRooTndujQQR4teDt37sx54IEHcsqUKZPwPnBr0aKFPJOyCVtODvvkk09UnTp1pJbr2GOPVZ9++qnUclWpUkW3bLxeffVVVbduXakpNX/+fGNro0KFCmr58uVSy1W/fn21fv16qeWaMWOGbysuE958803VrVs3tXXrVrnHbNasWapevXpSo2zAMSeHmQICoHvzzTffSO2ALVu2GAMTIMjF2rBhg5Tibd68Wf3yyy9Sy2V7HytXrpRSwRg2bJi66qqr8gxMYPs3UXAxODls3759Ukq0d+9eKRWs/fv3SynRr7/+KqXMe+qpp1S/fv2klrf/+7//kxJlCwYnhxUpUkRKifweyyQMOhe2cePGqfvvv19qFFYMTg7zGw4srKFCv5ZTQUD3rHfv3lKjMGNwImega3bdddf5dmcpPBicHHbIIfZfTzZ26wYMGKA2btwotUTNmzeXEoUBgxM5ATONo0aNklqitm3bqhEjRkiNwoDByWF//PGHlBJl25gT0gZsM26nnHKKGjp0aKG1FskNDE4OC0u3Dq2mZ555RmqJkFZw+OGHS43CgsHJYWFpOY0dO9baarr00kuZ+R1SDE4Oc73l9Pvvv6svvvhCvffee+rtt99W7777rlq3bp367rvv5BnJee6556SUqFevXlKisGFwcphfAHJh/GXQoEHqz3/+s2rWrJlq0aKFnk3DWrtq1aqp0qVLq1NPPVU/fskll6iOHTuq/v37610T1q5dK69wYJ3f119/LbV42FUBf5/CicHJYS4kYeYH1umhZfXhhx/qhbmPP/643mrloosuUuXLl1ft2rXTAcsGOU8UXgxODsvmMaeff/5Z71G1evVquSfe0UcfrS6//HKpURgxOJGTrr766oOyro/cweBETmrSpImUKKwYnBwWhDwnJEhiQzxsSBd7q1mzpipevLg8KzXIaWratKnUKKwYnBzm+mzdfffdp/cWnz17tpo5c2bcbd68eXpDPAyGv/jii+ree+/Vs3oVK1aUv23HVhMBg5PDgj5bB5iVu+yyy1TPnj11PtOyZcvUt99+q+644w55RqKGDRtKicKMwclhfq0jv5m8wlK0aFEppQbdNmw1bINUAyIGJ4cdc8wxUkq0Y8cOKRUsv2zvUqVKSSl1H3zwgZTinXDCCapSpUpSozBjcHKY35ffr+WRSX4/57jjjpNSavbs2aOXuZjUqlVLShR2DE4OcyE42U50ARxRlQ6/k1K4XIWiGJwchi6Ojfe4p4LiF0j83p8fv9esUaOGlFIzfvx49eOPP0qNsgGDk8OOOOII6/gLDpssDIsWLZJSPByNjkM402E7Bw+waDgdH3/8sT5O3XTuHgUTg5PjbGMwWJNWGC0FbIVigvfllyTqx3RaMaCbmG5rDNasWaNat27NM+yyBIOT4/y6OUh2LEivvfaatSWCLPB0bdq0SUrx0m01xVqyZInq1KmT1CjIGJwcV7duXSklGj16tJQKht/r52d3ys8++0xK8dLtJnohqGJPcgo2BifHoTVx5plnSi0eNm1bunSpLpcpU8Y6u+cdt6pSpYqU4mFzuBIlSujy5s2b1cKFC3XZ6+STT1a1a9eWWmqwv5PNaaedJqX8wz5R2JmTgovBKQBuvPFGKSV65JFHpKTULbfcIqVc2E3S2wXDchIs1vXq0qWLlJTq06ePdYnM9ddfn/bavi+//FJKiZJZd5csZNBjs7otW7bIPRQ0DE4B0KZNG/WnP/1JavHQOsABAXDXXXepf/3rX3r5x7nnnqvXr02cOFE/5jV58mTVvXt3Vb16db2W7cknn1TdunXTj82YMcM6nnXooYfq4JQuLAa2KVu2rJQy46efflI9evSQGgVNkcjVMRgrSENu4MCBavDgwVKLh5QDTPlnYtkHFuU2atRIbd++Xe6J16pVK/X0009LLXUYC+rXr5/U4qGbiu6pzc6dO9Mal8LYGTavo2Bhyykg7rzzTr3C3wTLQXC4gG0WLFkITNga1xaYkNtkCyzJsrWc0E086aSTpGbm15VE69Lmnnvu0YGNgoXBKSDQrfM7jnvbtm3qr3/9q94/KR3IOMd+S35jQg888EC+8pDAFvgQmPIax/Jr5J9zzjnWY6SQD9a3b1+pUVAwOAVIXoEBX3wcw5Rq6wZHPGGA3G8mDflWsQPm6bKtCTz++OOllD4EJ4y1mYwbN8438JJ7GJwCBEcrJQPjOmeccYYOUl999ZXcGw/dqwEDBug0BQQnP2jVYDfLTLC1nNLd4cDLNi4HQ4YMkRIFAQfEAwJX/fPOO09qqSlZsqRudSEAoIuDPZp27dolj/o76qij9Ja7ttyoVFWuXNnYemrbtq2eMfTjNyCOvKbobGPnzp3VlClTdNlr5cqVOp+L3MeWU0CMHDlSSqnDGXEbN25U77//vl7XlkpgQspBpgIT2Lp16W6/YvLQQw9JKRFSLSgYGJwCAHsqjRkzRmrxEEAKwtlnn60WL16sLrjgArkn/3bv3i2lRDhEM1NwIkyHDh2kFm/SpEnq119/lRq5jMEpAPzGe9555x09VZ5J7du311uyZLr7gxacDbqemYQDFUyQdoEkU3Ifg1MATJ8+XUrxrrjiClWuXDnVu3dvvcauRYsWaS8rAexCOX/+/Hx1If345RplugWI1hNyv0wyNbhPBYvByXFIjFyxYoXU4sWuuUN2OKbLsZwFQSoVjRs31lnUb7zxhjr//PPl3szz2wguk926KLQATdAq5Jo79zE4OW7atGlSiodZqwYNGkgtV9WqVXWQwgA4zolDSoEJZu/QgkDwwzhMYSzvQJfKBktwMg0LnG25YWghktsYnBw3depUKcXLK5hg+xS/E3aRVoAvL86QKyx+A9GHHXaYlDLL1oq0bT9M7mBwchhykpYvXy61eFgDlwzbVrr5GZtKl9/2ucWLF5dSZmFJj4lt+2FyB4OTw1atWiWleKVLl076CCXbycAHI/d27969Ukpk2xImv7CXlSnwIT0DuyCQuxicHPbRRx9JKZ5tFsrE1nJK93CC/Ni/f7+UEhVUcEJ30bbfOZJSyV0MTg6zzdKlMqNmaznZ7i9Ifj+zILuZts/L7/w8OvgYnByG459MsHtlEPkFoIIMTrYsd9sRVeQGBidHIZv6888/l1q8VIKTSwPifj+zILuZtgMiCuvUZEoPg5OjsHmcCVIDCmp85mAqyGBp22ETiZg8IdhdDE6Osi31wLFMqbDNyh2M2Tq/AFTQY2C2Y6dsFwE6+BicHGULTqmuQbMFhIPRrStWrJiUEvmlGWSC7eCEZLePocLH4OSoHTt2SCkeDhlIhUt5Tn5LVGz7PGWK7XPjwQfuYnBylO2KnurWIi4NiPvtgY41fgXJ1uJky8ldDE6Osm3MVphr4TLN79DMgp45s7XaOCDuLgYnR9m+TH4r+01c6tYhONlmGm0Jp5myb98+KcULcrDPdgxOjrLtb+S31a2JS906OOuss6QUb8mSJVIqGLYB90zvwEmZw+DkqBIlSkgpXqrByTW1atWSUjxspzJnzhypZZ6t+1ZQe7BT/jE4OcrWcrLN4gUF9pCyef7556WUebadL1Od/aTCw+DkKNsVfdOmTVIKJuzeecwxx0gtHlpOy5Ytk1pm2ZYCZeKkYSoYDE6OsmWC46Tegk5YLGitW7eWUqK///3v6uOPP5ZaZmDvJtMunLgA5HXEOx08DE6OwphT+fLlpRYP+4MHWffu3aWUaOvWrapu3br63DkcumA7Tj0Vtk3lbPurkxsYnByGgy1N1q9fL6W8ubS2LgqtwmuvvVZqZrNnz9bn8dWuXVufCpMfODbLJJMnGVPmMTg5zDbtjoM0k+XS2rpYffv2TWq8B92xm266yXf/8bzYxrGqVasmJXIRg5PDbC0nHBMedFiIO3bsWKn5w/q3/Oz3jbP8TOrUqSMlchGDk8Mw9mKCmacvvvhCasFVr1499d///jepLO10Z9Vef/11Y1Y9BsOTPSSCDg4GJ4dhyt22Of+8efOkFGzXXHONPmigUaNGck8iHLuO48XTYUvsNB1ISm5hcHKc7dy1F154QUrBh8AzZcoU/W/CEeLY8xuHguLgzy5duqhRo0bJM1M3ffp0KcX7y1/+IiVyFYOT42yHZ+JMuzVr1kgtOzRt2lSNHDlSzZ07V6dLYKeCgQMHpr0t8cyZM/XBpCZNmjSRErmKwclx2F62cuXKUotXkMs9soHt87nooovUqaeeKjVyFYNTALRp00ZK8caPH5/nWjuXtkwpTMgyx2C4Sbt27aRELmNwCoBOnToZuzbIAXryySelRrEee+wxYwDGPllXXXWV1MhlDE4BgMFhW+sJg8V+uzm6tp9TYUCraerUqVKLh3V92Xi0VjZicAqIbt26SSke9sAeMWKE1AgefvhhKSW6/fbbpUSuY3AKiKpVq6qGDRtKLd6QIUMCvxg4UxYsWGDNAcOOBxwIDw4GpwB56KGHpJTozjvvlFI8Fxf+FqRevXpJKZHtMyI3MTgFyHnnnWcde3rrrbeyKjEzHejO2VqQWDycbpY5HRwMTgHTp08f61q0nj17JmzUZhv4tg2UBxV2HkACp8mJJ57o2+okNzE4BQy+aLfddpvU4mGHTCz/iD0EwZbnZLs/qKZNmyalREgrsB0YQe5icAogBCdb1jj2GI+d2QtjKkEsLP/BwmEKHganAEK3DkszbN27WbNmqQcffFBq4YWFw0OHDpUaBQ2DU0Ch5eSXHf7EE0+oZ599NrTLV4oWLaonCHiAQXAxOAVYy5YtVceOHaWW6I477lArV66UWrxs79b169dP1axZU2oURAxOATdo0CC9/5ENjpIKG2xg17VrV6lRUDE4BRzWiU2ePFlnkGe7ZM7rwyZy2PqXgo/BKQtgP+wZM2ZYD+I0CdqYEzaes+0KGoU9wcOeiJpNGJyyBA4AwM6PyR4EEKQxpwkTJugWkd+hDjiD7uWXX1bFixeXeyjoGJyyCE4Inj9/vqpUqZLcY7dt2zbnFwvjtF8cvtmjR488z63Dol5sLUPZg8Epy2DVPU7IzWsD/+3bt+uBdCR04ghwl2ATvWHDhqlatWrpXQYonBicslDJkiV1F6dz585yj91zzz2natSoodfs5bXlb0Hbt2+f3jwPC5yRCpCfU34p+BicshSSEJFmYNsDKhZaKtiw7swzz9Sbsa1YsUIeKRxId3j00Uf1Cce9e/fWXU4iBqcshz2zk4UghUMTGjdurA+dHD16tO8WwPmBI8KxtAT7eSMooYyuJlFUkZxsX8cQch06dFCzZ8+WWnqqV6+uzjrrLB1E8Oc555yjTyNOFgbe169fr0/2xdYmS5culUdSc/PNN1sP2Ozfv791K2MKJganLJeJ4GSCLUiwbg1buGCBLVIYSpcurcetcJAlbphty8SM4Lnnnqv3asJmcRUqVJB74zE4ZR8GpyxnC04IJggqaNG4qk6dOjrgRLc82blzJ4NTiHDMKaTQ4nnnnXfUSy+9pGrXri33ugEb5i1atEgHVe7FFF4MTiF36aWXqjlz5ugTS5o1ayb3Fj6MY2EPKnQD0YVDncKNwYk0bC+CnCdM62PGDhnXyS6FSRfWwuFQAmzrgpYStnhhljdFccwpy9nGnDDrtnjxYqnZIXAsX75crVmzRq1evVqtW7cureRIzO5hWQ3WwKFV1Lx5c1W2bFl5NDkccwoXBqcsl9/gZLJhwwb17bff6oMUorc9e/boW6xy5crpHTtPP/30jLTCGJzChcEpy9mCE3KXcNZdkCBNAYHOhMEp+3DMKcvZTl/B8pag8XvP2XYOHzE4ZT1bS6NixYpSCg4saD766KOlFi+ZbWIoWBicshxm3bCVbyy0Mm699VapBYvpfWPBcl5bxFDwMDhlOQwgY8wJqQIIUpi+x5a+WBISREg36Nu3r963Ci0pLBzGv+fQQw+VZ1C24IA4ETmJLScichKDExE5icGJiJzE4ERETmJwIiInMTgRkZMYnIjISQxOROQkBicichKDExE5icGJiJzE4ERETmJwIiInMTgRkZMYnIjISQxOROQkBicichJ3wozxwQcf6MMjP/30U/XJJ5+o7777Tv3444/69uuvv6oTTzxRHw557LHH6m1ucTjkeeedp6pWrSqvQLFwgjDOtzv55JPV119/LfceOOkXx6Cn4qOPPtLn1mH/cxxyULp0aVWmTBl5lLIRg1PEU089pZ544gn9RUoHviQtW7ZU9evX1zfbCSFh8/777+vPxXtCcNOmTdULL7wgNbPPPvtMzZ07Vy1dulS9++676ocffpBH4uFw0Msuu0wHuwsuuEDuDR5cCBs1aqSWLVumjjzySLk33EIdnLBR/oQJE9T3338v92RGrVq11ObNm9Vtt92mbrnlFrk3nHr06KE/41gIJC+99JLU4u3du1f17Nkzz+Blcvjhh+uW1T//+U99mGiQPPjgg/oCiePfcXgDhXTMafv27eqSSy5Rw4cPz3hgAlztixcvrv72t7/JPeFVokQJKeXtl19+Uc2bN08rMAG63jj2vFWrVnJPMKxatUoHJihVqpT+k0IYnDCWhObzhx9+KPckwjhSmzZt1L333quefvpp3dTGuBP+7rPPPqv+8Y9/6ODmPQ8uFv6zYXwq7BCkkzV27Fjf3wsCT4sWLVSvXr30rWHDhvJIriFDhvj+Xlzz8ccf67MFo3jEVQx068IicmXNiXS5ciJXJ+Pt4osvzlm7dq08O2+7d+/OiVzlcy666KK417nvvvvkGdS/f/+4zwa3tm3byqPx6tevn/Bc3PB5Ri4M8qx427Zty2nZsqV+3mOPPSb3BkPkQpdTrly5uH/rjh075FEKVcsp8p9Xz8SZ3HTTTeqNN97Qp8cm64gjjlDt2rVTixcvVv/+97/1fRgMv/3223U5FehebtiwQQ/+vv3227qllimY5dq4caNasmSJfu1NmzbJI5mBFuWKFSuMXeTffvtNSrlMA76YjVu3bp3UcnXp0kVFApyqXLmy3BMPrSk8fv7556vu3bvLvWZbt27VPwefAT6LPXv2yCOZg5YfXh9d+9gZylgYj4xcCPX/E+97wAGoJm+++abq2LGj1MIhNAPikVaOqlKlih5w9cIALLpw+YUjsfE6mI3KS+QKqV5++WUdEBHcTO8LkKaAbmSqA7zTp09X8+bN0zfbTBdSIvC6vXv3TrorhPeJLx/eN/70BhQEbHzOGPTG6byPPvro/8ZTotq3b69GjhwptQNQf/jhh6WWC0HvtNNOk1pqvvjiC/XKK6/o94qgb4PA9tBDD6lIC1juSYTUkRNOOEEPusdC9x+fIX7OgAEDEgI/uvaYFLj55pv/F5Qxrub3fmwwEzxz5kypZb/QBCcEAvwH8cJ/lPHjx0utcEyaNEndf//91qBhcsYZZ+ggiuO3/eDLjGCGsYxk4UvXtWvXPFt8+GKgdfLzzz/LPf6Q37R//349TR4LEwXRlmYUZjaRFxXr7LPP1i2GdGDsCcEiFQhOCJA1atSQe3KhxY33jRZoLOS6nXTSSfoi4Ac5cvj8KlWqpOv4/SOFJRVhC06h6dYhOJkMHjxYSoXjzjvv1IEglcAE6PLdeOON6q677pJ7EmHKvnHjxikFJti2bZt65JFHdIsPLUwTfE4YuE02MAG6Nd7ABKaf8dVXX0kpV8mSJaVkhmCN1lsstOyQ95RqYIK33npLf36mixW6lWgReq1evTrPwASYiYz991x55ZVSIptQtJwwxVy2bFmp5brwwgvVjBkzpFbw0H0aNWqU1OLhao3ZJ/w61q5dqzPVbUmhCG7eL5+tZQjly5dXzZo109P6aAHg9TFOZFK3bl01ZcqUuO7La6+9Zk2LQHewbdu2uvUAeO0FCxb4jufE5jkhMCLovvPOO7ruhdc2Ba4//vhDvffee6pPnz7q1ltv1fch6KGLZWtt4ediJhbvDUEFN3SvTTBL601JwGvbxoSikKN0yimn6BYWxrii0CpF1zEKqxHwfkzQQvLCe0UrLUwtp1DM1i1dujRuRiR6K8xZteHDhxvfw9VXX50T+TLLs+JFWh4511xzjfHvzZ07V56VkxP5Yhufg5nJiRMnyrPiRVpAOQ888IDx7/Xr10+elaNnjyIthoTnRIJ9zosvvpgT+aLLM3PhtW+44YaEvxO9tWnTRp55QCSwGp+XzC0S7OVVcnIiwcP4nEhgyIkEe3lWvFWrVuVELgzGvxe5OMizDmjfvr3xebhVrFgxJxLU5ZkH9OjRQz8WCdwJr7V8+fKE18AN78dk8eLFOZFgKbVwCEW3zjtOEIWrb2F5/PHHpZSrdu3aupWCvCuTcuXK6bwqjN144coehfEVL6w9Q3ejdevWck88tKIiQUh3gbzwM6NLTvBzkLQaCwPpr7/+um7VmPKY8NpjxozRGfjJiARgdfnll0stNdG8oPXr16tXX31Vl2Nh/G3YsGGqevXqck88tEYiQVZq8caNGyclf+juYYA7cqGRew6Itm6Rk+VdB4iJAxO8HxOMh3knFrJdKIJTsWLFpBQPszmFAdPKprEaDIrmBTM8sd2BqIULF6qffvpJB5FFixbJvbmwbCaZNX6YhvfCeBjGX2DWrFn6z1iRFqeqVq2a1OwwS5XXuFFU0aJFpZQaDLiD6TNA1zSZtA4EF3SVvWzjlF4I8phU8EKQxjgeuq1epufntaYOaRNhEorgFB0P8cK4TmHA+IIXvtwY80rGtddea/ySY2Gt7d9g+kKYnH766ToFwgvjOQh8ptdHlnay/Kbn84Iv64gRI/S4oPc2bdo0VbNmzf+18CLdJP1nLHxuaOUlIzZLOwr5SBgT83PcccepJk2aSC0RluKYfnemi1WQMtsLQyiCE3JUTDCblOrMVjq++eYbKeXCwGwqTM19dLdMg+YVK1ZMaWcE03vBl9I0WIwrfrJfeMDgcLowOI9BaARx761BgwZ6Kh7PgS1btug/Y9l+7ybIJzN1tfIKTqn+HqNMSbaZTLzNBqEITmhem1oHkOkcJ2Saf/nll1I74KijjpJSrlTWnEGRIkWklOuQQw4xfqHy6h54mdZz4ecddthhUstlSxa1MY3r5SQ5QYx/nx8EYbSewPR5pvo5mMR2N02/A+QvZZJ3fC/MQhGc4IYbbpBSvGeeeUbnEGUKulrXX3993B5GptZDqktITFP/GCg3ZU9n6rVLGVbIozvy+eefSy1vpiUc+/btk5K/33//XUp5M20zksrngPdpSn+Ifd3C2KfLNkmDtIRdu3ZJLRxCE5yuuOIKYzMfQQQzWvkdHMc+PNipAF04lJHTFGUaPMYAbrI/E1tqeLsXGJ9AbhRaD94WAhL+pk6dKrW8mQaT69Wrp//E0g6vgQMHSskf3jOW5niZ1tuZBsSTbWEBNp3zmjhxYtxFwg82tvNCly32szW1UtPdRcDUKgVbNxIZ9VhZECahCU7wn//8R3fxvHDVxJQ6kgdThaRGDD5jIWfsdh+Yjo8m7GFbWqQNeGHRsC0JMAotFaxP88KgdHSgFV1JL8xSJTPgj5km7+AsWgsY1wHTFP/kyZP19iZ5wbozUza4KRDZZlSThZ/lbekhebNz585Ss0M3HP83vPCasUzje+m+b9skjW2YAcmtSN8Ik1AFJwx6IqfFu3gTcMXC7A6WKSBvyHYFQ5cG+UODBg3S+TkIOrZWyt133613BABTOgC6k8hCxkp5E2QD16lTRy9cjYX3f88990jtQNqAd+8oBBz8e5DdbYLZLSzVQA6QF5ayRGEWyxTQsYwGC3uRzuCFYI+McrT4TPIbiEzQwsH78UIqBDLnTZMS6MZhUB2/Q28uHFqkyewCkG6uHCYVkLnvhfwwXHjwvvC7QysVkyHIesf/O9vyomwUym168YtGAmFeTX7kv0RzS9DftwURk+gG/Pg5SAQEbNmCLWRN0LrC4l7MhuGLgqQ+2+wNWjvR14xC3hOCpUmFChX066NFhKs/Uhts4zH4YniTDzEd7rcdCRZPI8kRgRvv3ZQ6EQutseeff15qByAIepdmoDWabK5RFLrothYGJkUwRodgiwsD1uXZ/g8goTM6ExhlWr5y3XXX6R1V0zF06FBjq9gPgpa3RZetQruHOLo82CsImcWZhCsivsjoTpjGKHB1R5cvXdiSBQteTdDV8lsYnBcEJoxtmFpKuKLbfm6q0GLzjp9gG5U5c+ZI7QAEk1TGzgAtVQQM74LgZGHWD1nxCLheCArz58+X2gFo+cZm66cKWeWmMT+bdAJ2UIWqWxcLA6hYbDp69GjrkoFUYHAaS1TQusL2H7blCehGoZuGPJ1UYMYPCYl+AaJTp0466Ka6hzbGrtASQ4vJFJgA42oY90B3J1lI8DQNVKNLGbvpHzZ+Mw2cY3tkb1pGXjCjhiRNBGrbBnU2GADHgmRTYEI3H5n+XmiF25ZHJQPDDKks3cG4aFjSDULbcvJCNwpXcwSsZP6zIfjgKCKctBIdq0oVxmawtg5jC9i0zTswjRwedC0w0xjN50kWuqHoJiGTGgHTO4aG8Tesfkd2s2l9nR8M2iKDHCkIsZMA6DZGtxbBFR6zl/iye09fATw3ulYMy1xs6QnIETP9/WRh3AutL3R7vd1yzHhivAlZ7GjBoPtrg4CP3S1M8Fma1jemAsnAGFPC/0Mci4X/G7hQYFwKXXJMUGCbFXxm+FwxBJDtGJwMkFOC7h6uUFhnhkFIfEkw6IwZISzITWU732Th52KGCeNOpsHS/ECwQjBByyKdQOoHLSrbwlrXYEkKxvKwhQ4P5XQbgxMROSm0Y05E5DYGJyJyEoMTETmJwYmInMTgREROYnAiIicxOBGRkxiciMhJoUjCRAYzUTYJSkZ+foQiOOEMfizGJcoGWKCdygk4QcVuHRE5icGJiJzE4ERETgrFmJN3a1WioEtlg7qg4pYpROQkduuIyEkMTkTkJAYnInISgxMROYnBiYicxOBERE5icCIiJzE4EZGTGJyIyEkMTkTkJAYnInISgxMROYnBiYicxOBERE5icCIiJzE4EZGTGJyIyEkMTkTkJAYnInISgxMROYnBiYicxOBERE5icCIiJzE4EZGTGJyIyEkMTkTkIKX+H0kn91aIka7KAAAAAElFTkSuQmCC;" parent="1" vertex="1">
                    <mxGeometry x="510" y="77" width="295" height="223" as="geometry"/>
                </mxCell>
                <mxCell id="DNbBVgyK4wFiBioxaRf0-4" value="" style="ellipse;whiteSpace=wrap;html=1;aspect=fixed;strokeColor=#FFFFFF;strokeWidth=3;fillColor=none;" parent="1" vertex="1">
                    <mxGeometry x="345" y="385" width="150" height="150" as="geometry"/>
                </mxCell>
                <mxCell id="DNbBVgyK4wFiBioxaRf0-5" value="" style="ellipse;whiteSpace=wrap;html=1;aspect=fixed;strokeColor=#FFFFFF;strokeWidth=9;fillColor=none;" parent="1" vertex="1">
                    <mxGeometry x="350" y="400" width="60" height="60" as="geometry"/>
                </mxCell>
                <mxCell id="DNbBVgyK4wFiBioxaRf0-6" value="" style="endArrow=none;html=1;strokeWidth=9;exitX=0;exitY=0.5;exitDx=0;exitDy=0;" parent="1" source="DNbBVgyK4wFiBioxaRf0-5" edge="1">
                    <mxGeometry width="50" height="50" relative="1" as="geometry">
                        <mxPoint x="400" y="410" as="sourcePoint"/>
                        <mxPoint x="350" y="360" as="targetPoint"/>
                    </mxGeometry>
                </mxCell>
                <mxCell id="DNbBVgyK4wFiBioxaRf0-7" value="" style="endArrow=none;html=1;strokeWidth=9;exitX=0;exitY=0.5;exitDx=0;exitDy=0;curved=1;" parent="1" edge="1">
                    <mxGeometry width="50" height="50" relative="1" as="geometry">
                        <mxPoint x="410" y="430" as="sourcePoint"/>
                        <mxPoint x="410" y="360" as="targetPoint"/>
                    </mxGeometry>
                </mxCell>
                <mxCell id="DNbBVgyK4wFiBioxaRf0-8" value="" style="endArrow=none;html=1;strokeWidth=9;exitX=0;exitY=0.5;exitDx=0;exitDy=0;" parent="1" edge="1">
                    <mxGeometry width="50" height="50" relative="1" as="geometry">
                        <mxPoint x="370" y="440" as="sourcePoint"/>
                        <mxPoint x="370" y="360" as="targetPoint"/>
                    </mxGeometry>
                </mxCell>
                <mxCell id="DNbBVgyK4wFiBioxaRf0-9" value="" style="endArrow=none;html=1;strokeWidth=9;exitX=0;exitY=0.5;exitDx=0;exitDy=0;" parent="1" edge="1">
                    <mxGeometry width="50" height="50" relative="1" as="geometry">
                        <mxPoint x="390" y="440" as="sourcePoint"/>
                        <mxPoint x="390" y="360" as="targetPoint"/>
                    </mxGeometry>
                </mxCell>
                <mxCell id="DNbBVgyK4wFiBioxaRf0-10" value="" style="endArrow=none;html=1;strokeWidth=9;" parent="1" edge="1">
                    <mxGeometry width="50" height="50" relative="1" as="geometry">
                        <mxPoint x="380" y="560" as="sourcePoint"/>
                        <mxPoint x="379.71" y="460" as="targetPoint"/>
                    </mxGeometry>
                </mxCell>
                <mxCell id="DNbBVgyK4wFiBioxaRf0-11" value="" style="endArrow=none;html=1;strokeWidth=9;curved=1;" parent="1" edge="1">
                    <mxGeometry width="50" height="50" relative="1" as="geometry">
                        <mxPoint x="480" y="560" as="sourcePoint"/>
                        <mxPoint x="480" y="360" as="targetPoint"/>
                    </mxGeometry>
                </mxCell>
                <mxCell id="DNbBVgyK4wFiBioxaRf0-12" value="" style="ellipse;whiteSpace=wrap;html=1;strokeColor=#FFFFFF;strokeWidth=9;fillColor=none;" parent="1" vertex="1">
                    <mxGeometry x="580" y="360" width="40" height="200" as="geometry"/>
                </mxCell>
                <mxCell id="DNbBVgyK4wFiBioxaRf0-14" value="" style="ellipse;whiteSpace=wrap;html=1;strokeColor=#FFFFFF;strokeWidth=9;fillColor=none;" parent="1" vertex="1">
                    <mxGeometry x="580" y="420" width="40" height="80" as="geometry"/>
                </mxCell>
            </root>
        </mxGraphModel>
    </diagram>
</mxfile>